solid sharpie_holder
facet normal 0.707106781186548 0.707106781186547 0.0
outer loop
vertex -4.59619407771256 -4.59619407771255 22.8
vertex -3.25 -5.62916512459885 0.0
vertex -4.59619407771256 -4.59619407771255 0.0
endloop
endfacet
facet normal 0.500000000000001 0.866025403784438 0.0
outer loop
vertex -3.25 -5.62916512459885 0.0
vertex -4.59619407771256 -4.59619407771255 22.8
vertex -3.25 -5.62916512459885 22.8
endloop
endfacet
facet normal 0.258819045102521 0.965925826289068 0.0
outer loop
vertex -1.68232379316639 -6.27851787087894 22.8
vertex 0.0 -6.5 0.0
vertex -1.68232379316639 -6.27851787087894 0.0
endloop
endfacet
facet normal 3.92088835408464e-016 1.0 0.0
outer loop
vertex 0.0 -6.5 0.0
vertex -1.68232379316639 -6.27851787087894 22.8
vertex 0.0 -6.5 22.8
endloop
endfacet
facet normal 0.965925826289069 0.25881904510252 0.0
outer loop
vertex -6.27851787087895 -1.68232379316638 0.0
vertex -5.62916512459885 -3.25 22.8
vertex -5.62916512459885 -3.25 0.0
endloop
endfacet
facet normal 0.866025403784439 0.5 0.0
outer loop
vertex -5.62916512459885 -3.25 22.8
vertex -6.27851787087895 -1.68232379316638 0.0
vertex -6.27851787087895 -1.68232379316638 22.8
endloop
endfacet
facet normal 1.0 -2.94066626556348e-016 0.0
outer loop
vertex -6.5 0.0 0.0
vertex -6.27851787087895 -1.68232379316638 22.8
vertex -6.27851787087895 -1.68232379316638 0.0
endloop
endfacet
facet normal 0.965925826289069 0.25881904510252 0.0
outer loop
vertex -6.27851787087895 -1.68232379316638 22.8
vertex -6.5 0.0 0.0
vertex -6.5 0.0 22.8
endloop
endfacet
facet normal 0.500000000000001 0.866025403784438 0.0
outer loop
vertex -3.25 -5.62916512459885 22.8
vertex -1.68232379316639 -6.27851787087894 0.0
vertex -3.25 -5.62916512459885 0.0
endloop
endfacet
facet normal 0.258819045102521 0.965925826289068 0.0
outer loop
vertex -1.68232379316639 -6.27851787087894 0.0
vertex -3.25 -5.62916512459885 22.8
vertex -1.68232379316639 -6.27851787087894 22.8
endloop
endfacet
facet normal 0.965925826289068 -0.258819045102521 0.0
outer loop
vertex -6.27851787087895 1.68232379316639 0.0
vertex -6.5 0.0 22.8
vertex -6.5 0.0 0.0
endloop
endfacet
facet normal 1.0 -2.94066626556348e-016 0.0
outer loop
vertex -6.5 0.0 22.8
vertex -6.27851787087895 1.68232379316639 0.0
vertex -6.27851787087895 1.68232379316639 22.8
endloop
endfacet
facet normal 0.866025403784439 0.5 0.0
outer loop
vertex -5.62916512459885 -3.25 0.0
vertex -4.59619407771256 -4.59619407771255 22.8
vertex -4.59619407771256 -4.59619407771255 0.0
endloop
endfacet
facet normal 0.707106781186548 0.707106781186547 0.0
outer loop
vertex -4.59619407771256 -4.59619407771255 22.8
vertex -5.62916512459885 -3.25 0.0
vertex -5.62916512459885 -3.25 22.8
endloop
endfacet
facet normal -0.923879532511286 0.382683432365092 0.0
outer loop
vertex 6.27851787087894 -1.68232379316639 22.8
vertex 5.62916512459885 -3.25 0.0
vertex 5.62916512459885 -3.25 22.8
endloop
endfacet
facet normal -0.866025403784438 0.500000000000001 0.0
outer loop
vertex 5.62916512459885 -3.25 0.0
vertex 6.27851787087894 -1.68232379316639 22.8
vertex 6.27851787087894 -1.68232379316639 0.0
endloop
endfacet
facet normal -0.25881904510252 0.965925826289068 0.0
outer loop
vertex 1.68232379316638 -6.27851787087895 22.8
vertex 3.24999999999999 -5.62916512459885 0.0
vertex 1.68232379316638 -6.27851787087895 0.0
endloop
endfacet
facet normal -0.499999999999999 0.866025403784439 0.0
outer loop
vertex 3.24999999999999 -5.62916512459885 0.0
vertex 1.68232379316638 -6.27851787087895 22.8
vertex 3.24999999999999 -5.62916512459885 22.8
endloop
endfacet
facet normal -0.5 -0.866025403784439 0.0
outer loop
vertex 3.25 5.62916512459885 22.8
vertex 1.68232379316639 6.27851787087895 0.0
vertex 3.25 5.62916512459885 0.0
endloop
endfacet
facet normal -0.258819045102521 -0.965925826289068 0.0
outer loop
vertex 1.68232379316639 6.27851787087895 0.0
vertex 3.25 5.62916512459885 22.8
vertex 1.68232379316639 6.27851787087895 22.8
endloop
endfacet
facet normal 3.92088835408464e-016 1.0 0.0
outer loop
vertex 0.0 -6.5 22.8
vertex 1.68232379316638 -6.27851787087895 0.0
vertex 0.0 -6.5 0.0
endloop
endfacet
facet normal -0.25881904510252 0.965925826289068 0.0
outer loop
vertex 1.68232379316638 -6.27851787087895 0.0
vertex 0.0 -6.5 22.8
vertex 1.68232379316638 -6.27851787087895 22.8
endloop
endfacet
facet normal -0.499999999999999 0.866025403784439 0.0
outer loop
vertex 3.24999999999999 -5.62916512459885 22.8
vertex 4.59619407771256 -4.59619407771256 0.0
vertex 3.24999999999999 -5.62916512459885 0.0
endloop
endfacet
facet normal -0.707106781186547 0.707106781186548 0.0
outer loop
vertex 4.59619407771256 -4.59619407771256 0.0
vertex 3.24999999999999 -5.62916512459885 22.8
vertex 4.59619407771256 -4.59619407771256 22.8
endloop
endfacet
facet normal 0.707106781186547 -0.707106781186548 0.0
outer loop
vertex -4.59619407771256 4.59619407771256 0.0
vertex -5.62916512459885 3.25 22.8
vertex -5.62916512459885 3.25 0.0
endloop
endfacet
facet normal 0.866025403784439 -0.5 0.0
outer loop
vertex -5.62916512459885 3.25 22.8
vertex -4.59619407771256 4.59619407771256 0.0
vertex -4.59619407771256 4.59619407771256 22.8
endloop
endfacet
facet normal 0.866025403784439 -0.5 0.0
outer loop
vertex -5.62916512459885 3.25 0.0
vertex -6.27851787087895 1.68232379316639 22.8
vertex -6.27851787087895 1.68232379316639 0.0
endloop
endfacet
facet normal 0.965925826289068 -0.258819045102521 0.0
outer loop
vertex -6.27851787087895 1.68232379316639 22.8
vertex -5.62916512459885 3.25 0.0
vertex -5.62916512459885 3.25 22.8
endloop
endfacet
facet normal -0.707106781186548 -0.707106781186547 0.0
outer loop
vertex 4.59619407771256 4.59619407771256 22.8
vertex 3.25 5.62916512459885 0.0
vertex 4.59619407771256 4.59619407771256 0.0
endloop
endfacet
facet normal -0.5 -0.866025403784439 0.0
outer loop
vertex 3.25 5.62916512459885 0.0
vertex 4.59619407771256 4.59619407771256 22.8
vertex 3.25 5.62916512459885 22.8
endloop
endfacet
facet normal 0.5 -0.866025403784439 0.0
outer loop
vertex -3.25 5.62916512459885 22.8
vertex -4.59619407771256 4.59619407771256 0.0
vertex -3.25 5.62916512459885 0.0
endloop
endfacet
facet normal 0.707106781186547 -0.707106781186548 0.0
outer loop
vertex -4.59619407771256 4.59619407771256 0.0
vertex -3.25 5.62916512459885 22.8
vertex -4.59619407771256 4.59619407771256 22.8
endloop
endfacet
facet normal -0.866025403784438 0.500000000000001 0.0
outer loop
vertex 5.62916512459885 -3.25 22.8
vertex 4.59619407771256 -4.59619407771256 0.0
vertex 4.59619407771256 -4.59619407771256 22.8
endloop
endfacet
facet normal -0.707106781186547 0.707106781186548 0.0
outer loop
vertex 4.59619407771256 -4.59619407771256 0.0
vertex 5.62916512459885 -3.25 22.8
vertex 5.62916512459885 -3.25 0.0
endloop
endfacet
facet normal 0.258819045102521 -0.965925826289068 0.0
outer loop
vertex -1.68232379316639 6.27851787087895 22.8
vertex -3.25 5.62916512459885 0.0
vertex -1.68232379316639 6.27851787087895 0.0
endloop
endfacet
facet normal 0.5 -0.866025403784439 0.0
outer loop
vertex -3.25 5.62916512459885 0.0
vertex -1.68232379316639 6.27851787087895 22.8
vertex -3.25 5.62916512459885 22.8
endloop
endfacet
facet normal -0.707106781186548 -0.707106781186547 0.0
outer loop
vertex 4.59619407771256 4.59619407771256 22.8
vertex 5.62916512459885 3.25 0.0
vertex 5.62916512459885 3.25 22.8
endloop
endfacet
facet normal -0.866025403784439 -0.5 0.0
outer loop
vertex 5.62916512459885 3.25 0.0
vertex 4.59619407771256 4.59619407771256 22.8
vertex 4.59619407771256 4.59619407771256 0.0
endloop
endfacet
facet normal -0.866025403784439 -0.5 0.0
outer loop
vertex 5.62916512459885 3.25 22.8
vertex 6.27851787087895 1.68232379316639 0.0
vertex 6.27851787087895 1.68232379316639 22.8
endloop
endfacet
facet normal -0.923879532511286 -0.382683432365091 0.0
outer loop
vertex 6.27851787087895 1.68232379316639 0.0
vertex 5.62916512459885 3.25 22.8
vertex 5.62916512459885 3.25 0.0
endloop
endfacet
facet normal -0.258819045102521 -0.965925826289068 0.0
outer loop
vertex 1.68232379316639 6.27851787087895 22.8
vertex 0.0 6.5 0.0
vertex 1.68232379316639 6.27851787087895 0.0
endloop
endfacet
facet normal -1.51488868225997e-016 -1.0 0.0
outer loop
vertex 0.0 6.5 0.0
vertex 1.68232379316639 6.27851787087895 22.8
vertex 0.0 6.5 22.8
endloop
endfacet
facet normal -1.51488868225997e-016 -1.0 0.0
outer loop
vertex 0.0 6.5 22.8
vertex -1.68232379316639 6.27851787087895 0.0
vertex 0.0 6.5 0.0
endloop
endfacet
facet normal 0.258819045102521 -0.965925826289068 0.0
outer loop
vertex -1.68232379316639 6.27851787087895 0.0
vertex 0.0 6.5 22.8
vertex -1.68232379316639 6.27851787087895 22.8
endloop
endfacet
facet normal -6.7768434520289e-017 2.1035290258791e-016 -1.0
outer loop
vertex -33.8074039201174 6.05866657858823 1.40998324127395e-014
vertex -20.8932695968648 -25.8886940969305 0.0
vertex -33.8074039201174 -6.05866657858821 2.8199664825479e-015
endloop
endfacet
facet normal -6.7768434520289e-017 2.1035290258791e-016 -1.0
outer loop
vertex -20.8932695968648 -25.8886940969305 0.0
vertex -33.8074039201174 6.05866657858823 1.40998324127395e-014
vertex -20.8932695968648 25.8886940969305 9.86988268891764e-015
endloop
endfacet
facet normal -6.7768434520289e-017 2.1035290258791e-016 -1.0
outer loop
vertex -20.8932695968648 -25.8886940969305 0.0
vertex -20.8932695968648 25.8886940969305 9.86988268891764e-015
vertex -5.62916512459885 3.25 0.0
endloop
endfacet
facet normal -6.7768434520289e-017 2.1035290258791e-016 -1.0
outer loop
vertex -5.62916512459885 3.25 0.0
vertex -20.8932695968648 25.8886940969305 9.86988268891764e-015
vertex 9.05866657858824 25.8886940969305 9.86988268891764e-015
endloop
endfacet
facet normal -6.7768434520289e-017 2.1035290258791e-016 -1.0
outer loop
vertex -20.8932695968648 -25.8886940969305 0.0
vertex -5.62916512459885 3.25 0.0
vertex -6.27851787087895 1.68232379316639 0.0
endloop
endfacet
facet normal -6.7768434520289e-017 2.1035290258791e-016 -1.0
outer loop
vertex -20.8932695968648 -25.8886940969305 0.0
vertex -6.27851787087895 1.68232379316639 0.0
vertex -6.5 0.0 0.0
endloop
endfacet
facet normal -6.7768434520289e-017 2.1035290258791e-016 -1.0
outer loop
vertex -5.62916512459885 3.25 0.0
vertex 9.05866657858824 25.8886940969305 9.86988268891764e-015
vertex -4.59619407771256 4.59619407771256 0.0
endloop
endfacet
facet normal -6.7768434520289e-017 2.1035290258791e-016 -1.0
outer loop
vertex -4.59619407771256 4.59619407771256 0.0
vertex 9.05866657858824 25.8886940969305 9.86988268891764e-015
vertex -3.25 5.62916512459885 0.0
endloop
endfacet
facet normal -6.7768434520289e-017 2.1035290258791e-016 -1.0
outer loop
vertex -3.25 5.62916512459885 0.0
vertex 9.05866657858824 25.8886940969305 9.86988268891764e-015
vertex -1.68232379316639 6.27851787087895 0.0
endloop
endfacet
facet normal -6.7768434520289e-017 2.1035290258791e-016 -1.0
outer loop
vertex -1.68232379316639 6.27851787087895 0.0
vertex 9.05866657858824 25.8886940969305 9.86988268891764e-015
vertex 0.0 6.5 0.0
endloop
endfacet
facet normal -6.7768434520289e-017 2.1035290258791e-016 -1.0
outer loop
vertex 0.0 6.5 0.0
vertex 9.05866657858824 25.8886940969305 9.86988268891764e-015
vertex 1.68232379316639 6.27851787087895 0.0
endloop
endfacet
facet normal -6.7768434520289e-017 2.1035290258791e-016 -1.0
outer loop
vertex 1.68232379316639 6.27851787087895 0.0
vertex 9.05866657858824 25.8886940969305 9.86988268891764e-015
vertex 3.25 5.62916512459885 0.0
endloop
endfacet
facet normal -6.7768434520289e-017 2.1035290258791e-016 -1.0
outer loop
vertex 3.25 5.62916512459885 0.0
vertex 9.05866657858824 25.8886940969305 9.86988268891764e-015
vertex 4.59619407771256 4.59619407771256 0.0
endloop
endfacet
facet normal -6.7768434520289e-017 2.1035290258791e-016 -1.0
outer loop
vertex 4.59619407771256 4.59619407771256 0.0
vertex 9.05866657858824 25.8886940969305 9.86988268891764e-015
vertex 5.62916512459885 3.25 0.0
endloop
endfacet
facet normal -6.7768434520289e-017 2.1035290258791e-016 -1.0
outer loop
vertex 5.62916512459885 3.25 0.0
vertex 9.05866657858824 25.8886940969305 9.86988268891764e-015
vertex 6.27851787087895 1.68232379316639 0.0
endloop
endfacet
facet normal -6.7768434520289e-017 2.1035290258791e-016 -1.0
outer loop
vertex 6.27851787087895 1.68232379316639 0.0
vertex 9.05866657858824 25.8886940969305 9.86988268891764e-015
vertex 6.5 0.0 0.0
endloop
endfacet
facet normal -6.7768434520289e-017 2.1035290258791e-016 -1.0
outer loop
vertex 6.5 0.0 0.0
vertex 9.05866657858824 25.8886940969305 9.86988268891764e-015
vertex 9.05866657858822 -25.8886940969305 0.0
endloop
endfacet
facet normal -6.7768434520289e-017 2.1035290258791e-016 -1.0
outer loop
vertex -20.8932695968648 -25.8886940969305 0.0
vertex -5.62916512459885 -3.25 0.0
vertex 9.05866657858822 -25.8886940969305 0.0
endloop
endfacet
facet normal -6.7768434520289e-017 2.1035290258791e-016 -1.0
outer loop
vertex -5.62916512459885 -3.25 0.0
vertex -20.8932695968648 -25.8886940969305 0.0
vertex -6.27851787087895 -1.68232379316638 0.0
endloop
endfacet
facet normal -6.7768434520289e-017 2.1035290258791e-016 -1.0
outer loop
vertex -6.27851787087895 -1.68232379316638 0.0
vertex -20.8932695968648 -25.8886940969305 0.0
vertex -6.5 0.0 0.0
endloop
endfacet
facet normal -6.7768434520289e-017 2.1035290258791e-016 -1.0
outer loop
vertex 9.05866657858822 -25.8886940969305 0.0
vertex -5.62916512459885 -3.25 0.0
vertex -4.59619407771256 -4.59619407771255 0.0
endloop
endfacet
facet normal -6.7768434520289e-017 2.1035290258791e-016 -1.0
outer loop
vertex 9.05866657858822 -25.8886940969305 0.0
vertex -4.59619407771256 -4.59619407771255 0.0
vertex -3.25 -5.62916512459885 0.0
endloop
endfacet
facet normal -6.7768434520289e-017 2.1035290258791e-016 -1.0
outer loop
vertex 9.05866657858822 -25.8886940969305 0.0
vertex -3.25 -5.62916512459885 0.0
vertex -1.68232379316639 -6.27851787087894 0.0
endloop
endfacet
facet normal -6.7768434520289e-017 2.1035290258791e-016 -1.0
outer loop
vertex 9.05866657858822 -25.8886940969305 0.0
vertex -1.68232379316639 -6.27851787087894 0.0
vertex 0.0 -6.5 0.0
endloop
endfacet
facet normal -6.7768434520289e-017 2.1035290258791e-016 -1.0
outer loop
vertex 9.05866657858822 -25.8886940969305 0.0
vertex 0.0 -6.5 0.0
vertex 1.68232379316638 -6.27851787087895 0.0
endloop
endfacet
facet normal -6.7768434520289e-017 2.1035290258791e-016 -1.0
outer loop
vertex 9.05866657858822 -25.8886940969305 0.0
vertex 1.68232379316638 -6.27851787087895 0.0
vertex 3.24999999999999 -5.62916512459885 0.0
endloop
endfacet
facet normal -6.7768434520289e-017 2.1035290258791e-016 -1.0
outer loop
vertex 9.05866657858822 -25.8886940969305 0.0
vertex 3.24999999999999 -5.62916512459885 0.0
vertex 4.59619407771256 -4.59619407771256 0.0
endloop
endfacet
facet normal -6.7768434520289e-017 2.1035290258791e-016 -1.0
outer loop
vertex 9.05866657858822 -25.8886940969305 0.0
vertex 4.59619407771256 -4.59619407771256 0.0
vertex 5.62916512459885 -3.25 0.0
endloop
endfacet
facet normal -6.7768434520289e-017 2.1035290258791e-016 -1.0
outer loop
vertex 9.05866657858822 -25.8886940969305 0.0
vertex 5.62916512459885 -3.25 0.0
vertex 6.27851787087894 -1.68232379316639 0.0
endloop
endfacet
facet normal -6.7768434520289e-017 2.1035290258791e-016 -1.0
outer loop
vertex 9.05866657858822 -25.8886940969305 0.0
vertex 6.27851787087894 -1.68232379316639 0.0
vertex 6.5 0.0 0.0
endloop
endfacet
facet normal 1.0 -3.54011331508889e-016 4.10078591626093e-032
outer loop
vertex 9.05866657858824 25.8886940969305 9.86988268891764e-015
vertex 9.05866657858822 -25.8886940969305 15.0
vertex 9.05866657858822 -25.8886940969305 0.0
endloop
endfacet
facet normal 1.0 -3.54011331508889e-016 4.10078591626093e-032
outer loop
vertex 9.05866657858822 -25.8886940969305 15.0
vertex 9.05866657858824 25.8886940969305 9.86988268891764e-015
vertex 9.05866657858824 25.8886940969305 15.0
endloop
endfacet
facet normal -1.0 4.65443418278515e-016 -6.79796027356118e-033
outer loop
vertex -33.8074039201174 6.05866657858823 15.0
vertex -33.8074039201174 -6.05866657858821 2.8199664825479e-015
vertex -33.8074039201174 -6.05866657858821 15.0
endloop
endfacet
facet normal -1.0 4.65443418278515e-016 -6.79796027356118e-033
outer loop
vertex -33.8074039201174 -6.05866657858821 2.8199664825479e-015
vertex -33.8074039201174 6.05866657858823 15.0
vertex -33.8074039201174 6.05866657858823 1.40998324127395e-014
endloop
endfacet
facet normal -0.866025403784439 0.5 0.0
outer loop
vertex -7.75177516253274 4.47548947678571 22.8
vertex -8.64598174182456 2.31668382549614 15.0
vertex -8.64598174182456 2.31668382549614 22.8
endloop
endfacet
facet normal -0.965925826289068 0.258819045102521 0.0
outer loop
vertex -8.64598174182456 2.31668382549614 15.0
vertex -7.75177516253274 4.47548947678571 22.8
vertex -7.75177516253274 4.47548947678571 15.0
endloop
endfacet
facet normal -0.965925826289068 0.258819045102521 0.0
outer loop
vertex -8.64598174182456 2.31668382549614 22.8
vertex -8.95097895357145 -5.63993296509579e-015 15.0
vertex -8.95097895357145 -5.63993296509579e-015 22.8
endloop
endfacet
facet normal -1.0 -1.06042207758198e-015 0.0
outer loop
vertex -8.95097895357145 -5.63993296509579e-015 15.0
vertex -8.64598174182456 2.31668382549614 22.8
vertex -8.64598174182456 2.31668382549614 15.0
endloop
endfacet
facet normal -1.0 -1.06042207758198e-015 0.0
outer loop
vertex -8.95097895357145 -5.63993296509579e-015 22.8
vertex -8.64598174182456 -2.31668382549612 15.0
vertex -8.64598174182456 -2.31668382549612 22.8
endloop
endfacet
facet normal -0.965925826289068 -0.258819045102521 0.0
outer loop
vertex -8.64598174182456 -2.31668382549612 15.0
vertex -8.95097895357145 -5.63993296509579e-015 22.8
vertex -8.95097895357145 -5.63993296509579e-015 15.0
endloop
endfacet
facet normal -0.965925826289068 -0.258819045102521 0.0
outer loop
vertex -8.64598174182456 -2.31668382549612 22.8
vertex -7.75177516253272 -4.47548947678574 15.0
vertex -7.75177516253272 -4.47548947678574 22.8
endloop
endfacet
facet normal -0.866025403784438 -0.500000000000001 0.0
outer loop
vertex -7.75177516253272 -4.47548947678574 15.0
vertex -8.64598174182456 -2.31668382549612 22.8
vertex -8.64598174182456 -2.31668382549612 15.0
endloop
endfacet
facet normal -0.866025403784438 -0.500000000000001 0.0
outer loop
vertex -7.75177516253272 -4.47548947678574 22.8
vertex -6.32929791632844 -6.32929791632843 15.0
vertex -6.32929791632844 -6.32929791632843 22.8
endloop
endfacet
facet normal -0.707106781186547 -0.707106781186548 0.0
outer loop
vertex -6.32929791632844 -6.32929791632843 15.0
vertex -7.75177516253272 -4.47548947678574 22.8
vertex -7.75177516253272 -4.47548947678574 15.0
endloop
endfacet
facet normal -0.5 -0.866025403784438 0.0
outer loop
vertex -4.47548947678571 -7.75177516253273 22.8
vertex -6.32929791632844 -6.32929791632843 15.0
vertex -4.47548947678571 -7.75177516253273 15.0
endloop
endfacet
facet normal -0.707106781186547 -0.707106781186548 0.0
outer loop
vertex -6.32929791632844 -6.32929791632843 15.0
vertex -4.47548947678571 -7.75177516253273 22.8
vertex -6.32929791632844 -6.32929791632843 22.8
endloop
endfacet
facet normal -0.258819045102523 -0.965925826289068 0.0
outer loop
vertex -2.31668382549614 -8.64598174182456 22.8
vertex -4.47548947678571 -7.75177516253273 15.0
vertex -2.31668382549614 -8.64598174182456 15.0
endloop
endfacet
facet normal -0.5 -0.866025403784438 0.0
outer loop
vertex -4.47548947678571 -7.75177516253273 15.0
vertex -2.31668382549614 -8.64598174182456 22.8
vertex -4.47548947678571 -7.75177516253273 22.8
endloop
endfacet
facet normal -1.08715540726892e-015 -1.0 0.0
outer loop
vertex -5.63993296509579e-015 -8.95097895357145 22.8
vertex -2.31668382549614 -8.64598174182456 15.0
vertex -5.63993296509579e-015 -8.95097895357145 15.0
endloop
endfacet
facet normal -0.258819045102523 -0.965925826289068 0.0
outer loop
vertex -2.31668382549614 -8.64598174182456 15.0
vertex -5.63993296509579e-015 -8.95097895357145 22.8
vertex -2.31668382549614 -8.64598174182456 22.8
endloop
endfacet
facet normal 0.258819045102521 -0.965925826289068 0.0
outer loop
vertex 2.31668382549613 -8.64598174182456 22.8
vertex -5.63993296509579e-015 -8.95097895357145 15.0
vertex 2.31668382549613 -8.64598174182456 15.0
endloop
endfacet
facet normal -1.08715540726892e-015 -1.0 0.0
outer loop
vertex -5.63993296509579e-015 -8.95097895357145 15.0
vertex 2.31668382549613 -8.64598174182456 22.8
vertex -5.63993296509579e-015 -8.95097895357145 22.8
endloop
endfacet
facet normal 0.499999999999999 -0.866025403784439 0.0
outer loop
vertex 4.47548947678571 -7.75177516253274 22.8
vertex 2.31668382549613 -8.64598174182456 15.0
vertex 4.47548947678571 -7.75177516253274 15.0
endloop
endfacet
facet normal 0.258819045102521 -0.965925826289068 0.0
outer loop
vertex 2.31668382549613 -8.64598174182456 15.0
vertex 4.47548947678571 -7.75177516253274 22.8
vertex 2.31668382549613 -8.64598174182456 22.8
endloop
endfacet
facet normal 0.707106781186548 -0.707106781186547 0.0
outer loop
vertex 6.32929791632845 -6.32929791632843 22.8
vertex 4.47548947678571 -7.75177516253274 15.0
vertex 6.32929791632845 -6.32929791632843 15.0
endloop
endfacet
facet normal 0.499999999999999 -0.866025403784439 0.0
outer loop
vertex 4.47548947678571 -7.75177516253274 15.0
vertex 6.32929791632845 -6.32929791632843 22.8
vertex 4.47548947678571 -7.75177516253274 22.8
endloop
endfacet
facet normal 0.866025403784439 -0.499999999999999 0.0
outer loop
vertex 7.75177516253272 -4.47548947678574 15.0
vertex 6.32929791632845 -6.32929791632843 22.8
vertex 6.32929791632845 -6.32929791632843 15.0
endloop
endfacet
facet normal 0.707106781186548 -0.707106781186547 0.0
outer loop
vertex 6.32929791632845 -6.32929791632843 22.8
vertex 7.75177516253272 -4.47548947678574 15.0
vertex 7.75177516253272 -4.47548947678574 22.8
endloop
endfacet
facet normal 0.923879532511287 -0.382683432365089 0.0
outer loop
vertex 8.64598174182456 -2.31668382549613 15.0
vertex 7.75177516253272 -4.47548947678574 22.8
vertex 7.75177516253272 -4.47548947678574 15.0
endloop
endfacet
facet normal 0.866025403784439 -0.499999999999999 0.0
outer loop
vertex 7.75177516253272 -4.47548947678574 22.8
vertex 8.64598174182456 -2.31668382549613 15.0
vertex 8.64598174182456 -2.31668382549613 22.8
endloop
endfacet
facet normal 0.866025403784439 0.5 0.0
outer loop
vertex 7.75177516253274 4.47548947678572 15.0
vertex 8.64598174182456 2.31668382549613 22.8
vertex 8.64598174182456 2.31668382549613 15.0
endloop
endfacet
facet normal 0.923879532511287 0.38268343236509 0.0
outer loop
vertex 8.64598174182456 2.31668382549613 22.8
vertex 7.75177516253274 4.47548947678572 15.0
vertex 7.75177516253274 4.47548947678572 22.8
endloop
endfacet
facet normal 0.707106781186547 0.707106781186548 0.0
outer loop
vertex 6.32929791632843 6.32929791632845 15.0
vertex 7.75177516253274 4.47548947678572 22.8
vertex 7.75177516253274 4.47548947678572 15.0
endloop
endfacet
facet normal 0.866025403784439 0.5 0.0
outer loop
vertex 7.75177516253274 4.47548947678572 22.8
vertex 6.32929791632843 6.32929791632845 15.0
vertex 6.32929791632843 6.32929791632845 22.8
endloop
endfacet
facet normal 0.5 0.866025403784439 0.0
outer loop
vertex 4.47548947678571 7.75177516253274 22.8
vertex 6.32929791632843 6.32929791632845 15.0
vertex 4.47548947678571 7.75177516253274 15.0
endloop
endfacet
facet normal 0.707106781186547 0.707106781186548 0.0
outer loop
vertex 6.32929791632843 6.32929791632845 15.0
vertex 4.47548947678571 7.75177516253274 22.8
vertex 6.32929791632843 6.32929791632845 22.8
endloop
endfacet
facet normal 0.258819045102521 0.965925826289068 0.0
outer loop
vertex 2.31668382549614 8.64598174182456 22.8
vertex 4.47548947678571 7.75177516253274 15.0
vertex 2.31668382549614 8.64598174182456 15.0
endloop
endfacet
facet normal 0.5 0.866025403784439 0.0
outer loop
vertex 4.47548947678571 7.75177516253274 15.0
vertex 2.31668382549614 8.64598174182456 22.8
vertex 4.47548947678571 7.75177516253274 22.8
endloop
endfacet
facet normal -7.39622121338693e-016 1.0 0.0
outer loop
vertex -5.63993296509579e-015 8.95097895357145 22.8
vertex 2.31668382549614 8.64598174182456 15.0
vertex -5.63993296509579e-015 8.95097895357145 15.0
endloop
endfacet
facet normal 0.258819045102521 0.965925826289068 0.0
outer loop
vertex 2.31668382549614 8.64598174182456 15.0
vertex -5.63993296509579e-015 8.95097895357145 22.8
vertex 2.31668382549614 8.64598174182456 22.8
endloop
endfacet
facet normal -0.25881904510252 0.965925826289068 0.0
outer loop
vertex -2.31668382549613 8.64598174182456 22.8
vertex -5.63993296509579e-015 8.95097895357145 15.0
vertex -2.31668382549613 8.64598174182456 15.0
endloop
endfacet
facet normal -7.39622121338693e-016 1.0 0.0
outer loop
vertex -5.63993296509579e-015 8.95097895357145 15.0
vertex -2.31668382549613 8.64598174182456 22.8
vertex -5.63993296509579e-015 8.95097895357145 22.8
endloop
endfacet
facet normal -0.5 0.866025403784439 0.0
outer loop
vertex -4.47548947678572 7.75177516253274 22.8
vertex -2.31668382549613 8.64598174182456 15.0
vertex -4.47548947678572 7.75177516253274 15.0
endloop
endfacet
facet normal -0.25881904510252 0.965925826289068 0.0
outer loop
vertex -2.31668382549613 8.64598174182456 15.0
vertex -4.47548947678572 7.75177516253274 22.8
vertex -2.31668382549613 8.64598174182456 22.8
endloop
endfacet
facet normal -0.707106781186548 0.707106781186547 0.0
outer loop
vertex -6.32929791632845 6.32929791632843 22.8
vertex -4.47548947678572 7.75177516253274 15.0
vertex -6.32929791632845 6.32929791632843 15.0
endloop
endfacet
facet normal -0.5 0.866025403784439 0.0
outer loop
vertex -4.47548947678572 7.75177516253274 15.0
vertex -6.32929791632845 6.32929791632843 22.8
vertex -4.47548947678572 7.75177516253274 22.8
endloop
endfacet
facet normal -0.707106781186548 0.707106781186547 0.0
outer loop
vertex -6.32929791632845 6.32929791632843 22.8
vertex -7.75177516253274 4.47548947678571 15.0
vertex -7.75177516253274 4.47548947678571 22.8
endloop
endfacet
facet normal -0.866025403784439 0.5 0.0
outer loop
vertex -7.75177516253274 4.47548947678571 15.0
vertex -6.32929791632845 6.32929791632843 22.8
vertex -6.32929791632845 6.32929791632843 15.0
endloop
endfacet
facet normal 0.0 0.0 1.0
outer loop
vertex -20.8932695968648 -25.8886940969305 15.0
vertex -7.75177516253272 -4.47548947678574 15.0
vertex -20.8932695968648 25.8886940969305 15.0
endloop
endfacet
facet normal 0.0 0.0 1.0
outer loop
vertex -7.75177516253272 -4.47548947678574 15.0
vertex -20.8932695968648 -25.8886940969305 15.0
vertex -6.32929791632844 -6.32929791632843 15.0
endloop
endfacet
facet normal 0.0 0.0 1.0
outer loop
vertex -6.32929791632844 -6.32929791632843 15.0
vertex -20.8932695968648 -25.8886940969305 15.0
vertex 9.05866657858822 -25.8886940969305 15.0
endloop
endfacet
facet normal 0.0 0.0 1.0
outer loop
vertex -20.8932695968648 25.8886940969305 15.0
vertex -7.75177516253272 -4.47548947678574 15.0
vertex -8.64598174182456 -2.31668382549612 15.0
endloop
endfacet
facet normal 0.0 0.0 1.0
outer loop
vertex -20.8932695968648 25.8886940969305 15.0
vertex -8.64598174182456 -2.31668382549612 15.0
vertex -8.95097895357145 -5.63993296509579e-015 15.0
endloop
endfacet
facet normal 0.0 0.0 1.0
outer loop
vertex -6.32929791632844 -6.32929791632843 15.0
vertex 9.05866657858822 -25.8886940969305 15.0
vertex -4.47548947678571 -7.75177516253273 15.0
endloop
endfacet
facet normal 0.0 0.0 1.0
outer loop
vertex -4.47548947678571 -7.75177516253273 15.0
vertex 9.05866657858822 -25.8886940969305 15.0
vertex -2.31668382549614 -8.64598174182456 15.0
endloop
endfacet
facet normal 0.0 0.0 1.0
outer loop
vertex -2.31668382549614 -8.64598174182456 15.0
vertex 9.05866657858822 -25.8886940969305 15.0
vertex -5.63993296509579e-015 -8.95097895357145 15.0
endloop
endfacet
facet normal 0.0 0.0 1.0
outer loop
vertex -5.63993296509579e-015 -8.95097895357145 15.0
vertex 9.05866657858822 -25.8886940969305 15.0
vertex 2.31668382549613 -8.64598174182456 15.0
endloop
endfacet
facet normal 0.0 0.0 1.0
outer loop
vertex 2.31668382549613 -8.64598174182456 15.0
vertex 9.05866657858822 -25.8886940969305 15.0
vertex 4.47548947678571 -7.75177516253274 15.0
endloop
endfacet
facet normal 0.0 0.0 1.0
outer loop
vertex 4.47548947678571 -7.75177516253274 15.0
vertex 9.05866657858822 -25.8886940969305 15.0
vertex 6.32929791632845 -6.32929791632843 15.0
endloop
endfacet
facet normal 0.0 0.0 1.0
outer loop
vertex 6.32929791632845 -6.32929791632843 15.0
vertex 9.05866657858822 -25.8886940969305 15.0
vertex 7.75177516253272 -4.47548947678574 15.0
endloop
endfacet
facet normal 0.0 0.0 1.0
outer loop
vertex 7.75177516253272 -4.47548947678574 15.0
vertex 9.05866657858822 -25.8886940969305 15.0
vertex 8.64598174182456 -2.31668382549613 15.0
endloop
endfacet
facet normal 0.0 0.0 1.0
outer loop
vertex 8.64598174182456 -2.31668382549613 15.0
vertex 9.05866657858822 -25.8886940969305 15.0
vertex 8.95097895357145 -5.63993296509579e-015 15.0
endloop
endfacet
facet normal 0.0 0.0 1.0
outer loop
vertex -20.8932695968648 25.8886940969305 15.0
vertex -6.32929791632845 6.32929791632843 15.0
vertex 9.05866657858824 25.8886940969305 15.0
endloop
endfacet
facet normal 0.0 0.0 1.0
outer loop
vertex -6.32929791632845 6.32929791632843 15.0
vertex -20.8932695968648 25.8886940969305 15.0
vertex -7.75177516253274 4.47548947678571 15.0
endloop
endfacet
facet normal 0.0 0.0 1.0
outer loop
vertex -7.75177516253274 4.47548947678571 15.0
vertex -20.8932695968648 25.8886940969305 15.0
vertex -8.64598174182456 2.31668382549614 15.0
endloop
endfacet
facet normal 0.0 0.0 1.0
outer loop
vertex -8.64598174182456 2.31668382549614 15.0
vertex -20.8932695968648 25.8886940969305 15.0
vertex -8.95097895357145 -5.63993296509579e-015 15.0
endloop
endfacet
facet normal 0.0 0.0 1.0
outer loop
vertex 9.05866657858824 25.8886940969305 15.0
vertex -6.32929791632845 6.32929791632843 15.0
vertex -4.47548947678572 7.75177516253274 15.0
endloop
endfacet
facet normal 0.0 0.0 1.0
outer loop
vertex 9.05866657858824 25.8886940969305 15.0
vertex -4.47548947678572 7.75177516253274 15.0
vertex -2.31668382549613 8.64598174182456 15.0
endloop
endfacet
facet normal 0.0 0.0 1.0
outer loop
vertex 9.05866657858824 25.8886940969305 15.0
vertex -2.31668382549613 8.64598174182456 15.0
vertex -5.63993296509579e-015 8.95097895357145 15.0
endloop
endfacet
facet normal 0.0 0.0 1.0
outer loop
vertex 9.05866657858824 25.8886940969305 15.0
vertex -5.63993296509579e-015 8.95097895357145 15.0
vertex 2.31668382549614 8.64598174182456 15.0
endloop
endfacet
facet normal 0.0 0.0 1.0
outer loop
vertex 9.05866657858824 25.8886940969305 15.0
vertex 2.31668382549614 8.64598174182456 15.0
vertex 4.47548947678571 7.75177516253274 15.0
endloop
endfacet
facet normal 0.0 0.0 1.0
outer loop
vertex 9.05866657858824 25.8886940969305 15.0
vertex 4.47548947678571 7.75177516253274 15.0
vertex 6.32929791632843 6.32929791632845 15.0
endloop
endfacet
facet normal 0.0 0.0 1.0
outer loop
vertex 9.05866657858824 25.8886940969305 15.0
vertex 6.32929791632843 6.32929791632845 15.0
vertex 7.75177516253274 4.47548947678572 15.0
endloop
endfacet
facet normal 0.0 0.0 1.0
outer loop
vertex 9.05866657858824 25.8886940969305 15.0
vertex 7.75177516253274 4.47548947678572 15.0
vertex 8.64598174182456 2.31668382549613 15.0
endloop
endfacet
facet normal 0.0 0.0 1.0
outer loop
vertex 9.05866657858824 25.8886940969305 15.0
vertex 8.64598174182456 2.31668382549613 15.0
vertex 8.95097895357145 -5.63993296509579e-015 15.0
endloop
endfacet
facet normal 0.0 0.0 1.0
outer loop
vertex 9.05866657858824 25.8886940969305 15.0
vertex 8.95097895357145 -5.63993296509579e-015 15.0
vertex 9.05866657858822 -25.8886940969305 15.0
endloop
endfacet
facet normal 0.0 -1.0 0.0
outer loop
vertex 9.05866657858822 -25.8886940969305 15.0
vertex -20.8932695968648 -25.8886940969305 0.0
vertex 9.05866657858822 -25.8886940969305 0.0
endloop
endfacet
facet normal 0.0 -1.0 0.0
outer loop
vertex -20.8932695968648 -25.8886940969305 0.0
vertex 9.05866657858822 -25.8886940969305 15.0
vertex -20.8932695968648 -25.8886940969305 15.0
endloop
endfacet
facet normal 0.0 1.0 0.0
outer loop
vertex -20.8932695968648 25.8886940969305 15.0
vertex 9.05866657858824 25.8886940969305 9.86988268891764e-015
vertex -20.8932695968648 25.8886940969305 9.86988268891764e-015
endloop
endfacet
facet normal 0.0 1.0 0.0
outer loop
vertex 9.05866657858824 25.8886940969305 9.86988268891764e-015
vertex -20.8932695968648 25.8886940969305 15.0
vertex 9.05866657858824 25.8886940969305 15.0
endloop
endfacet
facet normal 0.0 0.0 1.0
outer loop
vertex -20.8932695968648 -25.8886940969305 15.0
vertex -33.8074039201174 6.05866657858823 15.0
vertex -33.8074039201174 -6.05866657858821 15.0
endloop
endfacet
facet normal 0.0 0.0 1.0
outer loop
vertex -33.8074039201174 6.05866657858823 15.0
vertex -20.8932695968648 -25.8886940969305 15.0
vertex -20.8932695968648 25.8886940969305 15.0
endloop
endfacet
facet normal -0.837967972722043 -0.545719412053583 -1.54307597078028e-018
outer loop
vertex -33.8074039201174 -6.05866657858821 15.0
vertex -20.8932695968648 -25.8886940969305 0.0
vertex -20.8932695968648 -25.8886940969305 15.0
endloop
endfacet
facet normal -0.837967972722043 -0.545719412053583 -1.54307597078028e-018
outer loop
vertex -20.8932695968648 -25.8886940969305 0.0
vertex -33.8074039201174 -6.05866657858821 15.0
vertex -33.8074039201174 -6.05866657858821 2.8199664825479e-015
endloop
endfacet
facet normal -0.837967972722043 0.545719412053584 -1.31724821372865e-017
outer loop
vertex -20.8932695968648 25.8886940969305 15.0
vertex -33.8074039201174 6.05866657858823 1.40998324127395e-014
vertex -33.8074039201174 6.05866657858823 15.0
endloop
endfacet
facet normal -0.837967972722043 0.545719412053584 -1.31724821372865e-017
outer loop
vertex -33.8074039201174 6.05866657858823 1.40998324127395e-014
vertex -20.8932695968648 25.8886940969305 15.0
vertex -20.8932695968648 25.8886940969305 9.86988268891764e-015
endloop
endfacet
facet normal 0.0 0.0 1.0
outer loop
vertex -6.32929791632844 -6.32929791632843 22.8
vertex -6.5 0.0 22.8
vertex -7.75177516253272 -4.47548947678574 22.8
endloop
endfacet
facet normal 0.0 0.0 1.0
outer loop
vertex -6.5 0.0 22.8
vertex -6.32929791632844 -6.32929791632843 22.8
vertex -6.27851787087895 -1.68232379316638 22.8
endloop
endfacet
facet normal 0.0 0.0 1.0
outer loop
vertex -6.27851787087895 -1.68232379316638 22.8
vertex -6.32929791632844 -6.32929791632843 22.8
vertex -4.47548947678571 -7.75177516253273 22.8
endloop
endfacet
facet normal 0.0 0.0 1.0
outer loop
vertex -6.27851787087895 -1.68232379316638 22.8
vertex -4.47548947678571 -7.75177516253273 22.8
vertex -5.62916512459885 -3.25 22.8
endloop
endfacet
facet normal 0.0 0.0 1.0
outer loop
vertex -5.62916512459885 -3.25 22.8
vertex -4.47548947678571 -7.75177516253273 22.8
vertex -4.59619407771256 -4.59619407771255 22.8
endloop
endfacet
facet normal 0.0 0.0 1.0
outer loop
vertex -4.59619407771256 -4.59619407771255 22.8
vertex -4.47548947678571 -7.75177516253273 22.8
vertex -3.25 -5.62916512459885 22.8
endloop
endfacet
facet normal 0.0 0.0 1.0
outer loop
vertex -3.25 -5.62916512459885 22.8
vertex -4.47548947678571 -7.75177516253273 22.8
vertex -2.31668382549614 -8.64598174182456 22.8
endloop
endfacet
facet normal 0.0 0.0 1.0
outer loop
vertex -3.25 -5.62916512459885 22.8
vertex -2.31668382549614 -8.64598174182456 22.8
vertex -1.68232379316639 -6.27851787087894 22.8
endloop
endfacet
facet normal 0.0 0.0 1.0
outer loop
vertex -1.68232379316639 -6.27851787087894 22.8
vertex -2.31668382549614 -8.64598174182456 22.8
vertex -5.63993296509579e-015 -8.95097895357145 22.8
endloop
endfacet
facet normal 0.0 0.0 1.0
outer loop
vertex -1.68232379316639 -6.27851787087894 22.8
vertex -5.63993296509579e-015 -8.95097895357145 22.8
vertex 0.0 -6.5 22.8
endloop
endfacet
facet normal 0.0 0.0 1.0
outer loop
vertex 0.0 -6.5 22.8
vertex -5.63993296509579e-015 -8.95097895357145 22.8
vertex 2.31668382549613 -8.64598174182456 22.8
endloop
endfacet
facet normal 0.0 0.0 1.0
outer loop
vertex 0.0 -6.5 22.8
vertex 2.31668382549613 -8.64598174182456 22.8
vertex 1.68232379316638 -6.27851787087895 22.8
endloop
endfacet
facet normal 0.0 0.0 1.0
outer loop
vertex 1.68232379316638 -6.27851787087895 22.8
vertex 2.31668382549613 -8.64598174182456 22.8
vertex 3.24999999999999 -5.62916512459885 22.8
endloop
endfacet
facet normal 0.0 0.0 1.0
outer loop
vertex 3.24999999999999 -5.62916512459885 22.8
vertex 2.31668382549613 -8.64598174182456 22.8
vertex 4.47548947678571 -7.75177516253274 22.8
endloop
endfacet
facet normal 0.0 0.0 1.0
outer loop
vertex 3.24999999999999 -5.62916512459885 22.8
vertex 4.47548947678571 -7.75177516253274 22.8
vertex 4.59619407771256 -4.59619407771256 22.8
endloop
endfacet
facet normal 0.0 0.0 1.0
outer loop
vertex 4.59619407771256 -4.59619407771256 22.8
vertex 4.47548947678571 -7.75177516253274 22.8
vertex 6.32929791632845 -6.32929791632843 22.8
endloop
endfacet
facet normal 0.0 0.0 1.0
outer loop
vertex 4.59619407771256 -4.59619407771256 22.8
vertex 6.32929791632845 -6.32929791632843 22.8
vertex 5.62916512459885 -3.25 22.8
endloop
endfacet
facet normal 0.0 0.0 1.0
outer loop
vertex 5.62916512459885 -3.25 22.8
vertex 6.32929791632845 -6.32929791632843 22.8
vertex 6.27851787087894 -1.68232379316639 22.8
endloop
endfacet
facet normal 0.0 0.0 1.0
outer loop
vertex 6.27851787087894 -1.68232379316639 22.8
vertex 6.32929791632845 -6.32929791632843 22.8
vertex 6.27851787087895 1.68232379316639 22.8
endloop
endfacet
facet normal 0.0 0.0 1.0
outer loop
vertex 6.27851787087895 1.68232379316639 22.8
vertex 6.32929791632845 -6.32929791632843 22.8
vertex 6.32929791632843 6.32929791632845 22.8
endloop
endfacet
facet normal 0.0 0.0 1.0
outer loop
vertex 6.32929791632843 6.32929791632845 22.8
vertex 6.32929791632845 -6.32929791632843 22.8
vertex 7.75177516253274 4.47548947678572 22.8
endloop
endfacet
facet normal 0.0 0.0 1.0
outer loop
vertex 7.75177516253274 4.47548947678572 22.8
vertex 6.32929791632845 -6.32929791632843 22.8
vertex 7.75177516253272 -4.47548947678574 22.8
endloop
endfacet
facet normal 0.0 0.0 1.0
outer loop
vertex 7.75177516253274 4.47548947678572 22.8
vertex 7.75177516253272 -4.47548947678574 22.8
vertex 8.64598174182456 -2.31668382549613 22.8
endloop
endfacet
facet normal 0.0 0.0 1.0
outer loop
vertex 7.75177516253274 4.47548947678572 22.8
vertex 8.64598174182456 -2.31668382549613 22.8
vertex 8.64598174182456 2.31668382549613 22.8
endloop
endfacet
facet normal 0.0 0.0 1.0
outer loop
vertex -8.64598174182456 -2.31668382549612 22.8
vertex -8.64598174182456 2.31668382549614 22.8
vertex -8.95097895357145 -5.63993296509579e-015 22.8
endloop
endfacet
facet normal 0.0 0.0 1.0
outer loop
vertex -8.64598174182456 2.31668382549614 22.8
vertex -8.64598174182456 -2.31668382549612 22.8
vertex -7.75177516253272 -4.47548947678574 22.8
endloop
endfacet
facet normal 0.0 0.0 1.0
outer loop
vertex -8.64598174182456 2.31668382549614 22.8
vertex -7.75177516253272 -4.47548947678574 22.8
vertex -7.75177516253274 4.47548947678571 22.8
endloop
endfacet
facet normal 0.0 0.0 1.0
outer loop
vertex -7.75177516253274 4.47548947678571 22.8
vertex -7.75177516253272 -4.47548947678574 22.8
vertex -6.32929791632845 6.32929791632843 22.8
endloop
endfacet
facet normal 0.0 0.0 1.0
outer loop
vertex -6.32929791632845 6.32929791632843 22.8
vertex -7.75177516253272 -4.47548947678574 22.8
vertex -6.5 0.0 22.8
endloop
endfacet
facet normal 0.0 0.0 1.0
outer loop
vertex -6.32929791632845 6.32929791632843 22.8
vertex -6.5 0.0 22.8
vertex -6.27851787087895 1.68232379316639 22.8
endloop
endfacet
facet normal 0.0 0.0 1.0
outer loop
vertex -6.32929791632845 6.32929791632843 22.8
vertex -6.27851787087895 1.68232379316639 22.8
vertex -4.47548947678572 7.75177516253274 22.8
endloop
endfacet
facet normal 0.0 0.0 1.0
outer loop
vertex -4.47548947678572 7.75177516253274 22.8
vertex -6.27851787087895 1.68232379316639 22.8
vertex -5.62916512459885 3.25 22.8
endloop
endfacet
facet normal 0.0 0.0 1.0
outer loop
vertex -4.47548947678572 7.75177516253274 22.8
vertex -5.62916512459885 3.25 22.8
vertex -4.59619407771256 4.59619407771256 22.8
endloop
endfacet
facet normal 0.0 0.0 1.0
outer loop
vertex -4.47548947678572 7.75177516253274 22.8
vertex -4.59619407771256 4.59619407771256 22.8
vertex -3.25 5.62916512459885 22.8
endloop
endfacet
facet normal 0.0 0.0 1.0
outer loop
vertex -4.47548947678572 7.75177516253274 22.8
vertex -3.25 5.62916512459885 22.8
vertex -2.31668382549613 8.64598174182456 22.8
endloop
endfacet
facet normal 0.0 0.0 1.0
outer loop
vertex -2.31668382549613 8.64598174182456 22.8
vertex -3.25 5.62916512459885 22.8
vertex -1.68232379316639 6.27851787087895 22.8
endloop
endfacet
facet normal 0.0 0.0 1.0
outer loop
vertex -2.31668382549613 8.64598174182456 22.8
vertex -1.68232379316639 6.27851787087895 22.8
vertex -5.63993296509579e-015 8.95097895357145 22.8
endloop
endfacet
facet normal 0.0 0.0 1.0
outer loop
vertex -5.63993296509579e-015 8.95097895357145 22.8
vertex -1.68232379316639 6.27851787087895 22.8
vertex 0.0 6.5 22.8
endloop
endfacet
facet normal 0.0 0.0 1.0
outer loop
vertex -5.63993296509579e-015 8.95097895357145 22.8
vertex 0.0 6.5 22.8
vertex 2.31668382549614 8.64598174182456 22.8
endloop
endfacet
facet normal 0.0 0.0 1.0
outer loop
vertex 2.31668382549614 8.64598174182456 22.8
vertex 0.0 6.5 22.8
vertex 1.68232379316639 6.27851787087895 22.8
endloop
endfacet
facet normal 0.0 0.0 1.0
outer loop
vertex 2.31668382549614 8.64598174182456 22.8
vertex 1.68232379316639 6.27851787087895 22.8
vertex 3.25 5.62916512459885 22.8
endloop
endfacet
facet normal 0.0 0.0 1.0
outer loop
vertex 2.31668382549614 8.64598174182456 22.8
vertex 3.25 5.62916512459885 22.8
vertex 4.47548947678571 7.75177516253274 22.8
endloop
endfacet
facet normal 0.0 0.0 1.0
outer loop
vertex 4.47548947678571 7.75177516253274 22.8
vertex 3.25 5.62916512459885 22.8
vertex 4.59619407771256 4.59619407771256 22.8
endloop
endfacet
facet normal 0.0 0.0 1.0
outer loop
vertex 4.47548947678571 7.75177516253274 22.8
vertex 4.59619407771256 4.59619407771256 22.8
vertex 6.32929791632843 6.32929791632845 22.8
endloop
endfacet
facet normal 0.0 0.0 1.0
outer loop
vertex 6.32929791632843 6.32929791632845 22.8
vertex 4.59619407771256 4.59619407771256 22.8
vertex 5.62916512459885 3.25 22.8
endloop
endfacet
facet normal 0.0 0.0 1.0
outer loop
vertex 6.32929791632843 6.32929791632845 22.8
vertex 5.62916512459885 3.25 22.8
vertex 6.27851787087895 1.68232379316639 22.8
endloop
endfacet
facet normal 0.0 0.0 1.0
outer loop
vertex 8.95097895357145 -5.63993296509579e-015 15.0
vertex 8.64598174182456 2.31668382549613 15.0
vertex 8.64598174182456 -2.31668382549613 15.0
endloop
endfacet
facet normal 1.0 -1.21724270334731e-015 0.0
outer loop
vertex 8.64598174182456 -2.31668382549613 15.0
vertex 8.64598174182456 -1.4488887394336 18.5117714323462
vertex 8.64598174182456 -2.31668382549613 22.8
endloop
endfacet
facet normal 1.0 -1.21724270334731e-015 0.0
outer loop
vertex 8.64598174182456 -1.4488887394336 18.5117714323462
vertex 8.64598174182456 -2.31668382549613 15.0
vertex 8.64598174182456 -1.29903810567665 18.15
endloop
endfacet
facet normal 1.0 -1.21724270334731e-015 0.0
outer loop
vertex 8.64598174182456 -1.29903810567665 18.15
vertex 8.64598174182456 -2.31668382549613 15.0
vertex 8.64598174182456 -1.06066017177982 17.8393398282202
endloop
endfacet
facet normal 1.0 -1.21724270334731e-015 0.0
outer loop
vertex 8.64598174182456 -1.06066017177982 17.8393398282202
vertex 8.64598174182456 -2.31668382549613 15.0
vertex 8.64598174182456 2.31668382549613 15.0
endloop
endfacet
facet normal 1.0 -1.21724270334731e-015 0.0
outer loop
vertex 8.64598174182456 -2.31668382549613 22.8
vertex 8.64598174182456 -1.4488887394336 18.5117714323462
vertex 8.64598174182456 -1.49999999999999 18.9
endloop
endfacet
facet normal 1.0 -1.21724270334731e-015 0.0
outer loop
vertex 8.64598174182456 -1.06066017177982 17.8393398282202
vertex 8.64598174182456 2.31668382549613 15.0
vertex 8.64598174182456 -0.749999999999993 17.6009618943234
endloop
endfacet
facet normal 1.0 -1.21724270334731e-015 0.0
outer loop
vertex 8.64598174182456 -0.749999999999993 17.6009618943234
vertex 8.64598174182456 2.31668382549613 15.0
vertex 8.64598174182456 -0.388228567653773 17.4511112605664
endloop
endfacet
facet normal 1.0 -1.21724270334731e-015 0.0
outer loop
vertex 8.64598174182456 -0.388228567653773 17.4511112605664
vertex 8.64598174182456 2.31668382549613 15.0
vertex 8.64598174182456 5.63993296509579e-015 17.4
endloop
endfacet
facet normal 1.0 -1.21724270334731e-015 0.0
outer loop
vertex 8.64598174182456 5.63993296509579e-015 17.4
vertex 8.64598174182456 2.31668382549613 15.0
vertex 8.64598174182456 0.38822856765379 17.4511112605664
endloop
endfacet
facet normal 1.0 -1.21724270334731e-015 0.0
outer loop
vertex 8.64598174182456 0.38822856765379 17.4511112605664
vertex 8.64598174182456 2.31668382549613 15.0
vertex 8.64598174182456 0.750000000000004 17.6009618943234
endloop
endfacet
facet normal 1.0 -1.21724270334731e-015 0.0
outer loop
vertex 8.64598174182456 0.750000000000004 17.6009618943234
vertex 8.64598174182456 2.31668382549613 15.0
vertex 8.64598174182456 1.06066017177983 17.8393398282202
endloop
endfacet
facet normal 1.0 -1.21724270334731e-015 0.0
outer loop
vertex 8.64598174182456 1.06066017177983 17.8393398282202
vertex 8.64598174182456 2.31668382549613 15.0
vertex 8.64598174182456 1.29903810567666 18.15
endloop
endfacet
facet normal 1.0 -1.21724270334731e-015 0.0
outer loop
vertex 8.64598174182456 1.29903810567666 18.15
vertex 8.64598174182456 2.31668382549613 15.0
vertex 8.64598174182456 1.44888873943361 18.5117714323462
endloop
endfacet
facet normal 1.0 -1.21724270334731e-015 0.0
outer loop
vertex 8.64598174182456 1.44888873943361 18.5117714323462
vertex 8.64598174182456 2.31668382549613 15.0
vertex 8.64598174182456 1.5 18.9
endloop
endfacet
facet normal 1.0 -1.21724270334731e-015 0.0
outer loop
vertex 8.64598174182456 -2.31668382549613 22.8
vertex 8.64598174182456 -1.06066017177982 19.9606601717798
vertex 8.64598174182456 2.31668382549613 22.8
endloop
endfacet
facet normal 1.0 -1.21724270334731e-015 0.0
outer loop
vertex 8.64598174182456 -1.06066017177982 19.9606601717798
vertex 8.64598174182456 -2.31668382549613 22.8
vertex 8.64598174182456 -1.29903810567665 19.65
endloop
endfacet
facet normal 1.0 -1.21724270334731e-015 0.0
outer loop
vertex 8.64598174182456 -1.29903810567665 19.65
vertex 8.64598174182456 -2.31668382549613 22.8
vertex 8.64598174182456 -1.4488887394336 19.2882285676538
endloop
endfacet
facet normal 1.0 -1.21724270334731e-015 0.0
outer loop
vertex 8.64598174182456 -1.4488887394336 19.2882285676538
vertex 8.64598174182456 -2.31668382549613 22.8
vertex 8.64598174182456 -1.49999999999999 18.9
endloop
endfacet
facet normal 1.0 -1.21724270334731e-015 0.0
outer loop
vertex 8.64598174182456 2.31668382549613 22.8
vertex 8.64598174182456 -1.06066017177982 19.9606601717798
vertex 8.64598174182456 -0.749999999999993 20.1990381056767
endloop
endfacet
facet normal 1.0 -1.21724270334731e-015 0.0
outer loop
vertex 8.64598174182456 2.31668382549613 22.8
vertex 8.64598174182456 -0.749999999999993 20.1990381056767
vertex 8.64598174182456 -0.388228567653779 20.3488887394336
endloop
endfacet
facet normal 1.0 -1.21724270334731e-015 0.0
outer loop
vertex 8.64598174182456 2.31668382549613 22.8
vertex 8.64598174182456 -0.388228567653779 20.3488887394336
vertex 8.64598174182456 5.63993296509579e-015 20.4
endloop
endfacet
facet normal 1.0 -1.21724270334731e-015 0.0
outer loop
vertex 8.64598174182456 2.31668382549613 22.8
vertex 8.64598174182456 5.63993296509579e-015 20.4
vertex 8.64598174182456 0.388228567653784 20.3488887394336
endloop
endfacet
facet normal 1.0 -1.21724270334731e-015 0.0
outer loop
vertex 8.64598174182456 2.31668382549613 22.8
vertex 8.64598174182456 0.388228567653784 20.3488887394336
vertex 8.64598174182456 0.750000000000004 20.1990381056767
endloop
endfacet
facet normal 1.0 -1.21724270334731e-015 0.0
outer loop
vertex 8.64598174182456 2.31668382549613 22.8
vertex 8.64598174182456 0.750000000000004 20.1990381056767
vertex 8.64598174182456 1.06066017177982 19.9606601717798
endloop
endfacet
facet normal 1.0 -1.21724270334731e-015 0.0
outer loop
vertex 8.64598174182456 2.31668382549613 22.8
vertex 8.64598174182456 1.06066017177982 19.9606601717798
vertex 8.64598174182456 1.29903810567666 19.65
endloop
endfacet
facet normal 1.0 -1.21724270334731e-015 0.0
outer loop
vertex 8.64598174182456 2.31668382549613 22.8
vertex 8.64598174182456 1.29903810567666 19.65
vertex 8.64598174182456 1.44888873943361 19.2882285676538
endloop
endfacet
facet normal 1.0 -1.21724270334731e-015 0.0
outer loop
vertex 8.64598174182456 2.31668382549613 22.8
vertex 8.64598174182456 1.44888873943361 19.2882285676538
vertex 8.64598174182456 1.5 18.9
endloop
endfacet
facet normal 1.0 -1.21724270334731e-015 0.0
outer loop
vertex 8.64598174182456 2.31668382549613 22.8
vertex 8.64598174182456 1.5 18.9
vertex 8.64598174182456 2.31668382549613 15.0
endloop
endfacet
facet normal 0.0 0.0 -1.0
outer loop
vertex 6.5 0.0 0.0
vertex 6.27851787087894 -1.68232379316639 0.0
vertex 6.27851787087895 1.68232379316639 0.0
endloop
endfacet
facet normal -1.0 1.67623289523849e-015 0.0
outer loop
vertex 6.27851787087894 -1.68232379316639 22.8
vertex 6.27851787087895 -1.49999999999999 18.9
vertex 6.27851787087894 -1.68232379316639 0.0
endloop
endfacet
facet normal -1.0 1.67623289523849e-015 0.0
outer loop
vertex 6.27851787087895 -1.49999999999999 18.9
vertex 6.27851787087894 -1.68232379316639 22.8
vertex 6.27851787087895 -1.44888873943359 19.2882285676538
endloop
endfacet
facet normal -1.0 1.67623289523849e-015 0.0
outer loop
vertex 6.27851787087895 -1.44888873943359 19.2882285676538
vertex 6.27851787087894 -1.68232379316639 22.8
vertex 6.27851787087895 -1.29903810567665 19.65
endloop
endfacet
facet normal -1.0 1.67623289523849e-015 0.0
outer loop
vertex 6.27851787087895 -1.29903810567665 19.65
vertex 6.27851787087894 -1.68232379316639 22.8
vertex 6.27851787087895 -1.06066017177981 19.9606601717798
endloop
endfacet
facet normal -1.0 1.67623289523849e-015 0.0
outer loop
vertex 6.27851787087895 -1.06066017177981 19.9606601717798
vertex 6.27851787087894 -1.68232379316639 22.8
vertex 6.27851787087895 1.68232379316639 22.8
endloop
endfacet
facet normal -1.0 1.67623289523849e-015 0.0
outer loop
vertex 6.27851787087895 -1.06066017177981 19.9606601717798
vertex 6.27851787087895 1.68232379316639 22.8
vertex 6.27851787087895 -0.749999999999993 20.1990381056767
endloop
endfacet
facet normal -1.0 1.67623289523849e-015 0.0
outer loop
vertex 6.27851787087895 -0.749999999999993 20.1990381056767
vertex 6.27851787087895 1.68232379316639 22.8
vertex 6.27851787087895 -0.388228567653773 20.3488887394336
endloop
endfacet
facet normal -1.0 1.67623289523849e-015 0.0
outer loop
vertex 6.27851787087895 -0.388228567653773 20.3488887394336
vertex 6.27851787087895 1.68232379316639 22.8
vertex 6.27851787087895 5.63993296509579e-015 20.4
endloop
endfacet
facet normal -1.0 1.67623289523849e-015 0.0
outer loop
vertex 6.27851787087895 5.63993296509579e-015 20.4
vertex 6.27851787087895 1.68232379316639 22.8
vertex 6.27851787087895 0.38822856765379 20.3488887394336
endloop
endfacet
facet normal -1.0 1.67623289523849e-015 0.0
outer loop
vertex 6.27851787087895 0.38822856765379 20.3488887394336
vertex 6.27851787087895 1.68232379316639 22.8
vertex 6.27851787087895 0.750000000000004 20.1990381056767
endloop
endfacet
facet normal -1.0 1.67623289523849e-015 0.0
outer loop
vertex 6.27851787087895 0.750000000000004 20.1990381056767
vertex 6.27851787087895 1.68232379316639 22.8
vertex 6.27851787087895 1.06066017177983 19.9606601717798
endloop
endfacet
facet normal -1.0 1.67623289523849e-015 0.0
outer loop
vertex 6.27851787087895 1.06066017177983 19.9606601717798
vertex 6.27851787087895 1.68232379316639 22.8
vertex 6.27851787087895 1.29903810567667 19.65
endloop
endfacet
facet normal -1.0 1.67623289523849e-015 0.0
outer loop
vertex 6.27851787087895 1.29903810567667 19.65
vertex 6.27851787087895 1.68232379316639 22.8
vertex 6.27851787087895 1.44888873943361 19.2882285676538
endloop
endfacet
facet normal -1.0 1.67623289523849e-015 0.0
outer loop
vertex 6.27851787087895 1.44888873943361 19.2882285676538
vertex 6.27851787087895 1.68232379316639 22.8
vertex 6.27851787087895 1.50000000000001 18.9
endloop
endfacet
facet normal -1.0 1.67623289523849e-015 0.0
outer loop
vertex 6.27851787087894 -1.68232379316639 0.0
vertex 6.27851787087895 -1.44888873943359 18.5117714323462
vertex 6.27851787087895 1.68232379316639 0.0
endloop
endfacet
facet normal -1.0 1.67623289523849e-015 0.0
outer loop
vertex 6.27851787087895 -1.44888873943359 18.5117714323462
vertex 6.27851787087894 -1.68232379316639 0.0
vertex 6.27851787087895 -1.49999999999999 18.9
endloop
endfacet
facet normal -1.0 1.67623289523849e-015 0.0
outer loop
vertex 6.27851787087895 1.68232379316639 0.0
vertex 6.27851787087895 -1.44888873943359 18.5117714323462
vertex 6.27851787087895 -1.29903810567665 18.15
endloop
endfacet
facet normal -1.0 1.67623289523849e-015 0.0
outer loop
vertex 6.27851787087895 1.68232379316639 0.0
vertex 6.27851787087895 -1.29903810567665 18.15
vertex 6.27851787087895 -1.06066017177981 17.8393398282202
endloop
endfacet
facet normal -1.0 1.67623289523849e-015 0.0
outer loop
vertex 6.27851787087895 1.68232379316639 0.0
vertex 6.27851787087895 -1.06066017177981 17.8393398282202
vertex 6.27851787087895 -0.749999999999993 17.6009618943234
endloop
endfacet
facet normal -1.0 1.67623289523849e-015 0.0
outer loop
vertex 6.27851787087895 1.68232379316639 0.0
vertex 6.27851787087895 -0.749999999999993 17.6009618943234
vertex 6.27851787087895 -0.388228567653773 17.4511112605664
endloop
endfacet
facet normal -1.0 1.67623289523849e-015 0.0
outer loop
vertex 6.27851787087895 1.68232379316639 0.0
vertex 6.27851787087895 -0.388228567653773 17.4511112605664
vertex 6.27851787087895 5.63993296509579e-015 17.4
endloop
endfacet
facet normal -1.0 1.67623289523849e-015 0.0
outer loop
vertex 6.27851787087895 1.68232379316639 0.0
vertex 6.27851787087895 5.63993296509579e-015 17.4
vertex 6.27851787087895 0.38822856765379 17.4511112605664
endloop
endfacet
facet normal -1.0 1.67623289523849e-015 0.0
outer loop
vertex 6.27851787087895 1.68232379316639 0.0
vertex 6.27851787087895 0.38822856765379 17.4511112605664
vertex 6.27851787087895 0.75000000000001 17.6009618943234
endloop
endfacet
facet normal -1.0 1.67623289523849e-015 0.0
outer loop
vertex 6.27851787087895 1.68232379316639 0.0
vertex 6.27851787087895 0.75000000000001 17.6009618943234
vertex 6.27851787087895 1.06066017177983 17.8393398282202
endloop
endfacet
facet normal -1.0 1.67623289523849e-015 0.0
outer loop
vertex 6.27851787087895 1.68232379316639 0.0
vertex 6.27851787087895 1.06066017177983 17.8393398282202
vertex 6.27851787087895 1.29903810567667 18.15
endloop
endfacet
facet normal -1.0 1.67623289523849e-015 0.0
outer loop
vertex 6.27851787087895 1.68232379316639 0.0
vertex 6.27851787087895 1.29903810567667 18.15
vertex 6.27851787087895 1.44888873943361 18.5117714323462
endloop
endfacet
facet normal -1.0 1.67623289523849e-015 0.0
outer loop
vertex 6.27851787087895 1.68232379316639 0.0
vertex 6.27851787087895 1.44888873943361 18.5117714323462
vertex 6.27851787087895 1.50000000000001 18.9
endloop
endfacet
facet normal -1.0 1.67623289523849e-015 0.0
outer loop
vertex 6.27851787087895 1.68232379316639 0.0
vertex 6.27851787087895 1.50000000000001 18.9
vertex 6.27851787087895 1.68232379316639 22.8
endloop
endfacet
facet normal 9.6032835064021e-016 0.965925826289069 0.25881904510252
outer loop
vertex 6.27851787087895 -1.44888873943359 18.5117714323462
vertex 8.64598174182456 -1.29903810567665 18.15
vertex 6.27851787087895 -1.29903810567665 18.15
endloop
endfacet
facet normal 8.24652649989813e-016 0.866025403784438 0.500000000000001
outer loop
vertex 8.64598174182456 -1.29903810567665 18.15
vertex 6.27851787087895 -1.44888873943359 18.5117714323462
vertex 8.64598174182456 -1.4488887394336 18.5117714323462
endloop
endfacet
facet normal 8.24652649989813e-016 0.866025403784438 0.500000000000001
outer loop
vertex 6.27851787087895 -1.29903810567665 18.15
vertex 8.64598174182456 -1.06066017177982 17.8393398282202
vertex 6.27851787087895 -1.06066017177981 17.8393398282202
endloop
endfacet
facet normal 6.32778234045551e-016 0.707106781186547 0.707106781186548
outer loop
vertex 8.64598174182456 -1.06066017177982 17.8393398282202
vertex 6.27851787087895 -1.29903810567665 18.15
vertex 8.64598174182456 -1.29903810567665 18.15
endloop
endfacet
facet normal 6.32778234045551e-016 0.707106781186547 0.707106781186548
outer loop
vertex 8.64598174182456 -1.06066017177982 17.8393398282202
vertex 6.27851787087895 -0.749999999999993 17.6009618943234
vertex 6.27851787087895 -1.06066017177981 17.8393398282202
endloop
endfacet
facet normal 3.9778102716656e-016 0.5 0.866025403784439
outer loop
vertex 6.27851787087895 -0.749999999999993 17.6009618943234
vertex 8.64598174182456 -1.06066017177982 17.8393398282202
vertex 8.64598174182456 -0.749999999999993 17.6009618943234
endloop
endfacet
facet normal 3.9778102716656e-016 0.5 0.866025403784439
outer loop
vertex 8.64598174182456 -0.749999999999993 17.6009618943234
vertex 6.27851787087895 -0.388228567653773 17.4511112605664
vertex 6.27851787087895 -0.749999999999993 17.6009618943234
endloop
endfacet
facet normal 1.35675700650395e-016 0.25881904510252 0.965925826289069
outer loop
vertex 6.27851787087895 -0.388228567653773 17.4511112605664
vertex 8.64598174182456 -0.749999999999993 17.6009618943234
vertex 8.64598174182456 -0.388228567653773 17.4511112605664
endloop
endfacet
facet normal 1.35675700650395e-016 0.25881904510252 0.965925826289069
outer loop
vertex 8.64598174182456 -0.388228567653773 17.4511112605664
vertex 6.27851787087895 5.63993296509579e-015 17.4
vertex 6.27851787087895 -0.388228567653773 17.4511112605664
endloop
endfacet
facet normal -1.35675700650396e-016 5.34666593738814e-017 1.0
outer loop
vertex 6.27851787087895 5.63993296509579e-015 17.4
vertex 8.64598174182456 -0.388228567653773 17.4511112605664
vertex 8.64598174182456 5.63993296509579e-015 17.4
endloop
endfacet
facet normal -1.35675700650396e-016 5.34666593738814e-017 1.0
outer loop
vertex 8.64598174182456 5.63993296509579e-015 17.4
vertex 6.27851787087895 0.38822856765379 17.4511112605664
vertex 6.27851787087895 5.63993296509579e-015 17.4
endloop
endfacet
facet normal -3.97781027166559e-016 -0.25881904510252 0.965925826289069
outer loop
vertex 6.27851787087895 0.38822856765379 17.4511112605664
vertex 8.64598174182456 5.63993296509579e-015 17.4
vertex 8.64598174182456 0.38822856765379 17.4511112605664
endloop
endfacet
facet normal -3.97781027166559e-016 -0.25881904510252 0.965925826289069
outer loop
vertex 8.64598174182456 0.38822856765379 17.4511112605664
vertex 6.27851787087895 0.75000000000001 17.6009618943234
vertex 6.27851787087895 0.38822856765379 17.4511112605664
endloop
endfacet
facet normal -6.32778234045551e-016 -0.5 0.866025403784438
outer loop
vertex 6.27851787087895 0.75000000000001 17.6009618943234
vertex 8.64598174182456 0.38822856765379 17.4511112605664
vertex 8.64598174182456 0.750000000000004 17.6009618943234
endloop
endfacet
facet normal -6.32778234045551e-016 -0.5 0.866025403784439
outer loop
vertex 8.64598174182456 0.750000000000004 17.6009618943234
vertex 6.27851787087895 1.06066017177983 17.8393398282202
vertex 6.27851787087895 0.75000000000001 17.6009618943234
endloop
endfacet
facet normal -8.24652649989815e-016 -0.707106781186549 0.707106781186546
outer loop
vertex 6.27851787087895 1.06066017177983 17.8393398282202
vertex 8.64598174182456 0.750000000000004 17.6009618943234
vertex 8.64598174182456 1.06066017177983 17.8393398282202
endloop
endfacet
facet normal -9.60328350640209e-016 -0.866025403784439 0.5
outer loop
vertex 8.64598174182456 1.29903810567666 18.15
vertex 6.27851787087895 1.06066017177983 17.8393398282202
vertex 8.64598174182456 1.06066017177983 17.8393398282202
endloop
endfacet
facet normal -8.24652649989815e-016 -0.707106781186549 0.707106781186546
outer loop
vertex 6.27851787087895 1.06066017177983 17.8393398282202
vertex 8.64598174182456 1.29903810567666 18.15
vertex 6.27851787087895 1.29903810567667 18.15
endloop
endfacet
facet normal -1.03055926121211e-015 -0.965925826289068 0.258819045102521
outer loop
vertex 8.64598174182456 1.44888873943361 18.5117714323462
vertex 6.27851787087895 1.29903810567667 18.15
vertex 8.64598174182456 1.29903810567666 18.15
endloop
endfacet
facet normal -9.60328350640209e-016 -0.866025403784439 0.5
outer loop
vertex 6.27851787087895 1.29903810567667 18.15
vertex 8.64598174182456 1.44888873943361 18.5117714323462
vertex 6.27851787087895 1.44888873943361 18.5117714323462
endloop
endfacet
facet normal -1.03055926121211e-015 -1.0 -4.45555494782345e-016
outer loop
vertex 8.64598174182456 1.5 18.9
vertex 6.27851787087895 1.44888873943361 18.5117714323462
vertex 8.64598174182456 1.44888873943361 18.5117714323462
endloop
endfacet
facet normal -1.03055926121211e-015 -0.965925826289068 0.258819045102521
outer loop
vertex 6.27851787087895 1.44888873943361 18.5117714323462
vertex 8.64598174182456 1.5 18.9
vertex 6.27851787087895 1.50000000000001 18.9
endloop
endfacet
facet normal -9.60328350640209e-016 -0.965925826289068 -0.258819045102521
outer loop
vertex 8.64598174182456 1.44888873943361 19.2882285676538
vertex 6.27851787087895 1.50000000000001 18.9
vertex 8.64598174182456 1.5 18.9
endloop
endfacet
facet normal -1.03055926121211e-015 -1.0 -4.45555494782345e-016
outer loop
vertex 6.27851787087895 1.50000000000001 18.9
vertex 8.64598174182456 1.44888873943361 19.2882285676538
vertex 6.27851787087895 1.44888873943361 19.2882285676538
endloop
endfacet
facet normal -8.24652649989813e-016 -0.866025403784438 -0.500000000000001
outer loop
vertex 8.64598174182456 1.29903810567666 19.65
vertex 6.27851787087895 1.44888873943361 19.2882285676538
vertex 8.64598174182456 1.44888873943361 19.2882285676538
endloop
endfacet
facet normal -9.60328350640209e-016 -0.965925826289068 -0.258819045102521
outer loop
vertex 6.27851787087895 1.44888873943361 19.2882285676538
vertex 8.64598174182456 1.29903810567666 19.65
vertex 6.27851787087895 1.29903810567667 19.65
endloop
endfacet
facet normal -6.32778234045551e-016 -0.707106781186547 -0.707106781186548
outer loop
vertex 8.64598174182456 1.06066017177982 19.9606601717798
vertex 6.27851787087895 1.29903810567667 19.65
vertex 8.64598174182456 1.29903810567666 19.65
endloop
endfacet
facet normal -8.24652649989813e-016 -0.866025403784438 -0.500000000000001
outer loop
vertex 6.27851787087895 1.29903810567667 19.65
vertex 8.64598174182456 1.06066017177982 19.9606601717798
vertex 6.27851787087895 1.06066017177983 19.9606601717798
endloop
endfacet
facet normal -6.32778234045551e-016 -0.707106781186547 -0.707106781186548
outer loop
vertex 8.64598174182456 1.06066017177982 19.9606601717798
vertex 6.27851787087895 0.750000000000004 20.1990381056767
vertex 6.27851787087895 1.06066017177983 19.9606601717798
endloop
endfacet
facet normal -3.9778102716656e-016 -0.5 -0.866025403784439
outer loop
vertex 6.27851787087895 0.750000000000004 20.1990381056767
vertex 8.64598174182456 1.06066017177982 19.9606601717798
vertex 8.64598174182456 0.750000000000004 20.1990381056767
endloop
endfacet
facet normal -3.9778102716656e-016 -0.5 -0.866025403784439
outer loop
vertex 8.64598174182456 0.750000000000004 20.1990381056767
vertex 6.27851787087895 0.38822856765379 20.3488887394336
vertex 6.27851787087895 0.750000000000004 20.1990381056767
endloop
endfacet
facet normal -1.35675700650396e-016 -0.25881904510252 -0.965925826289069
outer loop
vertex 6.27851787087895 0.38822856765379 20.3488887394336
vertex 8.64598174182456 0.750000000000004 20.1990381056767
vertex 8.64598174182456 0.388228567653784 20.3488887394336
endloop
endfacet
facet normal -1.35675700650395e-016 -0.25881904510252 -0.965925826289069
outer loop
vertex 8.64598174182456 0.388228567653784 20.3488887394336
vertex 6.27851787087895 5.63993296509579e-015 20.4
vertex 6.27851787087895 0.38822856765379 20.3488887394336
endloop
endfacet
facet normal 1.35675700650395e-016 -2.04955527599879e-016 -1.0
outer loop
vertex 6.27851787087895 5.63993296509579e-015 20.4
vertex 8.64598174182456 0.388228567653784 20.3488887394336
vertex 8.64598174182456 5.63993296509579e-015 20.4
endloop
endfacet
facet normal 1.35675700650395e-016 -2.04955527599879e-016 -1.0
outer loop
vertex 8.64598174182456 5.63993296509579e-015 20.4
vertex 6.27851787087895 -0.388228567653773 20.3488887394336
vertex 6.27851787087895 5.63993296509579e-015 20.4
endloop
endfacet
facet normal 3.97781027166559e-016 0.25881904510252 -0.965925826289069
outer loop
vertex 6.27851787087895 -0.388228567653773 20.3488887394336
vertex 8.64598174182456 5.63993296509579e-015 20.4
vertex 8.64598174182456 -0.388228567653779 20.3488887394336
endloop
endfacet
facet normal 3.97781027166559e-016 0.25881904510252 -0.965925826289068
outer loop
vertex 8.64598174182456 -0.388228567653779 20.3488887394336
vertex 6.27851787087895 -0.749999999999993 20.1990381056767
vertex 6.27851787087895 -0.388228567653773 20.3488887394336
endloop
endfacet
facet normal 6.32778234045551e-016 0.5 -0.866025403784439
outer loop
vertex 6.27851787087895 -0.749999999999993 20.1990381056767
vertex 8.64598174182456 -0.388228567653779 20.3488887394336
vertex 8.64598174182456 -0.749999999999993 20.1990381056767
endloop
endfacet
facet normal 6.32778234045551e-016 0.5 -0.866025403784439
outer loop
vertex 8.64598174182456 -0.749999999999993 20.1990381056767
vertex 6.27851787087895 -1.06066017177981 19.9606601717798
vertex 6.27851787087895 -0.749999999999993 20.1990381056767
endloop
endfacet
facet normal 8.24652649989814e-016 0.707106781186549 -0.707106781186546
outer loop
vertex 6.27851787087895 -1.06066017177981 19.9606601717798
vertex 8.64598174182456 -0.749999999999993 20.1990381056767
vertex 8.64598174182456 -1.06066017177982 19.9606601717798
endloop
endfacet
facet normal 8.24652649989814e-016 0.707106781186549 -0.707106781186546
outer loop
vertex 6.27851787087895 -1.06066017177981 19.9606601717798
vertex 8.64598174182456 -1.29903810567665 19.65
vertex 6.27851787087895 -1.29903810567665 19.65
endloop
endfacet
facet normal 9.60328350640209e-016 0.866025403784439 -0.499999999999999
outer loop
vertex 8.64598174182456 -1.29903810567665 19.65
vertex 6.27851787087895 -1.06066017177981 19.9606601717798
vertex 8.64598174182456 -1.06066017177982 19.9606601717798
endloop
endfacet
facet normal 9.60328350640209e-016 0.866025403784439 -0.499999999999999
outer loop
vertex 6.27851787087895 -1.29903810567665 19.65
vertex 8.64598174182456 -1.4488887394336 19.2882285676538
vertex 6.27851787087895 -1.44888873943359 19.2882285676538
endloop
endfacet
facet normal 1.03055926121211e-015 0.965925826289068 -0.258819045102521
outer loop
vertex 8.64598174182456 -1.4488887394336 19.2882285676538
vertex 6.27851787087895 -1.29903810567665 19.65
vertex 8.64598174182456 -1.29903810567665 19.65
endloop
endfacet
facet normal 1.03055926121211e-015 0.965925826289068 -0.258819045102521
outer loop
vertex 6.27851787087895 -1.44888873943359 19.2882285676538
vertex 8.64598174182456 -1.49999999999999 18.9
vertex 6.27851787087895 -1.49999999999999 18.9
endloop
endfacet
facet normal 1.03055926121211e-015 1.0 2.22777747391173e-016
outer loop
vertex 8.64598174182456 -1.49999999999999 18.9
vertex 6.27851787087895 -1.44888873943359 19.2882285676538
vertex 8.64598174182456 -1.4488887394336 19.2882285676538
endloop
endfacet
facet normal 1.03055926121211e-015 1.0 2.22777747391173e-016
outer loop
vertex 6.27851787087895 -1.49999999999999 18.9
vertex 8.64598174182456 -1.4488887394336 18.5117714323462
vertex 6.27851787087895 -1.44888873943359 18.5117714323462
endloop
endfacet
facet normal 9.60328350640209e-016 0.965925826289068 0.25881904510252
outer loop
vertex 8.64598174182456 -1.4488887394336 18.5117714323462
vertex 6.27851787087895 -1.49999999999999 18.9
vertex 8.64598174182456 -1.49999999999999 18.9
endloop
endfacet
endsolid sharpie_holder
