<?xml version="1.0" encoding="UTF-8" standalone="no"?>
<svg
   xmlns:dc="http://purl.org/dc/elements/1.1/"
   xmlns:cc="http://creativecommons.org/ns#"
   xmlns:rdf="http://www.w3.org/1999/02/22-rdf-syntax-ns#"
   xmlns:svg="http://www.w3.org/2000/svg"
   xmlns="http://www.w3.org/2000/svg"
   xmlns:sodipodi="http://sodipodi.sourceforge.net/DTD/sodipodi-0.dtd"
   xmlns:inkscape="http://www.inkscape.org/namespaces/inkscape"
   viewBox="0 0 60.095169 70.86615"
   id="svg2"
   version="1.1"
   inkscape:version="0.91 r13725"
   sodipodi:docname="robot-312566.svg"
   width="60.095169"
   height="70.86615">
  <metadata
     id="metadata236">
    <rdf:RDF>
      <cc:Work
         rdf:about="">
        <dc:format>image/svg+xml</dc:format>
        <dc:type
           rdf:resource="http://purl.org/dc/dcmitype/StillImage" />
        <dc:title></dc:title>
      </cc:Work>
    </rdf:RDF>
  </metadata>
  <defs
     id="defs234" />
  <sodipodi:namedview
     pagecolor="#ffffff"
     bordercolor="#666666"
     borderopacity="1"
     objecttolerance="10"
     gridtolerance="10"
     guidetolerance="10"
     inkscape:pageopacity="0"
     inkscape:pageshadow="2"
     inkscape:window-width="1366"
     inkscape:window-height="710"
     id="namedview232"
     showgrid="false"
     fit-margin-top="0"
     fit-margin-left="0"
     fit-margin-right="0"
     fit-margin-bottom="0"
     inkscape:zoom="5.5625733"
     inkscape:cx="42.178422"
     inkscape:cy="34.948604"
     inkscape:window-x="0"
     inkscape:window-y="0"
     inkscape:window-maximized="1"
     inkscape:current-layer="svg2" />
  <g
     id="g4"
     transform="matrix(0.17745752,0,0,0.17745752,-0.07245777,-0.07169247)"
     style="fill:#ff0000">
    <rect
       transform="matrix(-1.2077,0.71489,0.71489,1.2077,884.58,-240.72)"
       x="548.63"
       y="66.124001"
       width="14.475"
       height="23.757"
       rx="2.2311001"
       ry="2.2311001"
       id="rect6"
       style="stroke:#484848;stroke-width:2.31200004;stroke-linecap:round;stroke-linejoin:round" />
    <path
       d="m 256.52,233.28 0.6765,1.7164 13.978,32.388 -2.9346,1.9451 -18.849,-33.275 5.5435,-2.1487 1.5859,-0.6259 z"
       id="path8"
       inkscape:connector-curvature="0"
       style="opacity:0.62999998" />
    <path
       d="m 291.58,270.25 -0.9417,-1.5859 -17.074,-28.718 -3.3008,-1.0414 14.757,35.282 5.093,-3.0665 1.4666,-0.8701 z"
       id="path10"
       inkscape:connector-curvature="0"
       style="opacity:0.62999998" />
    <g
       id="g12"
       style="stroke:#484848;stroke-linecap:round;stroke-linejoin:round">
      <rect
         transform="matrix(-1.2077,0.71489,0.71489,1.2077,884.58,-240.72)"
         x="548.63"
         y="66.124001"
         width="14.475"
         height="23.757"
         rx="2.2311001"
         ry="2.2311001"
         id="rect14"
         style="stroke-width:2.31200004" />
      <rect
         transform="matrix(-1.2077,0.71489,0.71489,1.2077,884.58,-240.72)"
         x="546.56"
         y="48.009998"
         width="18.77"
         height="25.503"
         rx="2.1266"
         ry="2.1266"
         id="rect16"
         style="stroke-width:2" />
    </g>
    <path
       d="m 275.2,238.37 -0.9431,-1.5859 -17.073,-28.717 -3.3008,-1.0428 14.757,35.282 5.093,-3.0651 1.4666,-0.8715 z"
       id="path18"
       inkscape:connector-curvature="0"
       style="opacity:0.62999998" />
    <path
       d="m 243.37,215.66 0.6764,1.715 13.978,32.39 -2.9345,1.9451 -18.849,-33.276 5.5421,-2.1472 1.5872,-0.6259 z"
       id="path20"
       inkscape:connector-curvature="0"
       style="opacity:0.62999998" />
    <g
       id="g22"
       style="stroke:#484848;stroke-linecap:round;stroke-linejoin:round">
      <g
         id="g24"
         style="stroke-width:2">
        <rect
           transform="matrix(-1.2077,0.71489,0.71489,1.2077,884.58,-240.72)"
           x="546.56"
           y="48.009998"
           width="18.77"
           height="25.503"
           rx="2.1266"
           ry="2.1266"
           id="rect26" />
        <path
           d="m 211.93,202.25 c 0,12.948 10.496,23.444 23.444,23.444 12.948,0 23.444,-10.496 23.444,-23.444 0,-12.946 -10.496,-23.443 -23.444,-23.443 -12.948,0 -23.444,10.496 -23.444,23.443 z"
           id="path28"
           inkscape:connector-curvature="0" />
      </g>
      <path
         d="m 314.82,277.66 c 1.2785,-1.0484 3.1493,-0.86172 4.1962,0.41824 l 12.556,15.339 c 7.8942,9.5671 8.5356,19.088 2.0813,29.016 l -18.03,-22.025 c -0.52344,-0.63852 -1.2533,-0.9964 -2.0125,-1.0722 -0.75928,-0.0758 -1.5438,0.13049 -2.1837,0.65399 l -7.2964,5.9729 c -0.63995,0.5235 -0.99783,1.2533 -1.0736,2.0125 -0.0758,0.75928 0.13049,1.5452 0.65536,2.1838 l 17.918,21.889 c -10.11,3.7191 -20.236,0.94449 -27.319,-8.1272 l -12.558,-15.339 c -1.0469,-1.2799 -0.86029,-3.1493 0.41824,-4.1976 l 1.4329,-15.454 16.323,-13.363 14.892,2.0939 z"
         id="path30"
         inkscape:connector-curvature="0"
         style="stroke-width:2.02399993" />
    </g>
    <path
       d="m 321.99,331.84 c -19.052,0.11368 -25.897,-13.707 -33.595,-26.402 l 1.0526,-19.56 -6.14,0.7888 -0.3509,17.543 -0.9641,2.6314 15.525,20.174 9.0352,5.3512 9.8239,1.4034 5.6137,-1.9297 z"
       id="path32"
       inkscape:connector-curvature="0" />
    <path
       d="m 314.82,277.66 c 1.2785,-1.0484 3.1493,-0.86172 4.1962,0.41824 l 12.556,15.339 c 7.8942,9.5671 8.5356,19.088 2.0813,29.016 l -18.03,-22.025 c -0.52344,-0.63852 -1.2533,-0.9964 -2.0125,-1.0722 -0.75928,-0.0758 -1.5438,0.13049 -2.1837,0.65399 l -7.2964,5.9729 c -0.63995,0.5235 -0.99783,1.2533 -1.0736,2.0125 -0.0758,0.75928 0.13049,1.5452 0.65536,2.1838 l 17.918,21.889 c -10.11,3.7191 -20.236,0.94449 -27.319,-8.1272 l -12.558,-15.339 c -1.0469,-1.2799 -0.86029,-3.1493 0.41824,-4.1976 l 1.4329,-15.454 16.323,-13.363 14.892,2.0939 z"
       id="path34"
       inkscape:connector-curvature="0"
       style="stroke:#484848;stroke-width:2.02399993;stroke-linecap:round;stroke-linejoin:round" />
    <path
       d="m 333.22,316.93 c 8.029,-11.407 -7.4648,-26.296 -16.315,-36.402 l -17.28,-2.543 c -0.16415,2.8026 0.1965,2.8546 -1.5971,4.9597 1.4287,-0.0169 13.404,1.6448 14.333,2.0181 10.676,4.2846 24.146,20.01 20.859,31.967 z"
       id="path36"
       inkscape:connector-curvature="0"
       style="opacity:0.62999998" />
    <path
       d="m 268.06,272.28 c -1.9592,8.5468 3.4917,17.088 12.173,19.077 8.6801,1.9886 17.306,-3.3275 19.263,-11.876 1.9592,-8.5482 -3.4917,-17.089 -12.173,-19.078 -8.6816,-1.9886 -17.306,3.329 -19.263,11.877 z"
       id="path38"
       inkscape:connector-curvature="0"
       style="stroke:#484848;stroke-width:2.21700001;stroke-linecap:round;stroke-linejoin:round" />
    <path
       d="m 297.13,277.82 c -3.8734,-7.9125 -10.965,-12.179 -20.431,-13.756 11.003,-2.8195 19.607,-1.402 20.431,13.756 z"
       id="path40"
       inkscape:connector-curvature="0"
       style="opacity:0.62999998" />
    <path
       d="m 254.42,209.29 c -1.1312,-17.283 -12.52,-24.209 -26.38,-26.177 14.029,-5.26 33.272,7.817 26.38,26.177 z"
       id="path42"
       inkscape:connector-curvature="0"
       style="opacity:0.62999998" />
    <rect
       transform="matrix(1.2077,0.71489,-0.71489,1.2077,-142.7,-240.72)"
       x="301.88"
       y="212.19"
       width="14.475"
       height="23.757"
       rx="2.2311001"
       ry="2.2311001"
       id="rect44"
       style="stroke:#484848;stroke-width:2.31200004;stroke-linecap:round;stroke-linejoin:round" />
    <path
       d="m 82.942,233.28 -0.6765,1.7164 -13.978,32.388 2.9345,1.9451 18.849,-33.275 -5.5435,-2.1487 -1.5858,-0.6259 z"
       id="path46"
       inkscape:connector-curvature="0"
       style="opacity:0.62999998" />
    <path
       d="m 47.888,270.25 0.9417,-1.5859 17.074,-28.718 3.3008,-1.0414 -14.757,35.282 -5.093,-3.0665 -1.4666,-0.8701 z"
       id="path48"
       inkscape:connector-curvature="0"
       style="opacity:0.62999998" />
    <g
       id="g50"
       style="stroke:#484848;stroke-linecap:round;stroke-linejoin:round">
      <rect
         transform="matrix(1.2077,0.71489,-0.71489,1.2077,-142.7,-240.72)"
         x="301.88"
         y="212.19"
         width="14.475"
         height="23.757"
         rx="2.2311001"
         ry="2.2311001"
         id="rect52"
         style="stroke-width:2.31200004" />
      <rect
         transform="matrix(1.2077,0.71489,-0.71489,1.2077,-142.7,-240.72)"
         x="299.81"
         y="194.07001"
         width="18.77"
         height="25.503"
         rx="2.1266"
         ry="2.1266"
         id="rect54"
         style="stroke-width:2" />
    </g>
    <path
       d="m 64.262,238.37 0.9431,-1.5859 17.073,-28.717 3.3008,-1.0428 -14.757,35.282 -5.093,-3.0651 -1.4666,-0.8715 z"
       id="path56"
       inkscape:connector-curvature="0"
       style="opacity:0.62999998" />
    <path
       d="m 96.09,215.66 -0.6764,1.715 -13.978,32.39 2.9346,1.9451 18.849,-33.276 -5.5421,-2.1472 -1.5873,-0.6259 z"
       id="path58"
       inkscape:connector-curvature="0"
       style="opacity:0.62999998" />
    <g
       id="g60"
       style="stroke:#484848;stroke-linecap:round;stroke-linejoin:round">
      <g
         id="g62"
         style="stroke-width:2">
        <rect
           transform="matrix(1.2077,0.71489,-0.71489,1.2077,-142.7,-240.72)"
           x="299.81"
           y="194.07001"
           width="18.77"
           height="25.503"
           rx="2.1266"
           ry="2.1266"
           id="rect64" />
        <path
           d="m 127.53,202.25 c 0,12.948 -10.496,23.444 -23.444,23.444 -12.948,0 -23.444,-10.496 -23.444,-23.444 0,-12.946 10.496,-23.443 23.444,-23.443 12.948,0 23.444,10.496 23.444,23.443 z"
           id="path66"
           inkscape:connector-curvature="0" />
      </g>
      <path
         d="m 24.642,277.66 c -1.2785,-1.0484 -3.1493,-0.86172 -4.1962,0.41824 l -12.556,15.339 c -7.8942,9.5671 -8.5356,19.088 -2.0813,29.016 l 18.03,-22.025 c 0.52348,-0.63852 1.2532,-0.9964 2.0125,-1.0722 0.75925,-0.0758 1.5438,0.13049 2.1837,0.65399 l 7.2964,5.9729 c 0.63996,0.5235 0.99784,1.2533 1.0736,2.0125 0.07578,0.75928 -0.13052,1.5452 -0.6554,2.1838 l -17.918,21.889 c 10.11,3.7191 20.236,0.94449 27.319,-8.1272 l 12.558,-15.339 c 1.047,-1.2799 0.86031,-3.1493 -0.4182,-4.1976 l -1.4329,-15.454 -16.323,-13.363 -14.892,2.0939 z"
         id="path68"
         inkscape:connector-curvature="0"
         style="stroke-width:2.02399993" />
    </g>
    <path
       d="m 17.473,331.84 c 19.05,0.11368 25.896,-13.707 33.594,-26.402 l -1.0526,-19.56 6.14,0.7888 0.3509,17.543 0.9656,2.6314 -15.526,20.174 -9.0338,5.3512 -9.8239,1.4034 -5.6137,-1.9297 z"
       id="path70"
       inkscape:connector-curvature="0" />
    <path
       d="m 24.642,277.66 c -1.2785,-1.0484 -3.1493,-0.86172 -4.1962,0.41824 l -12.556,15.339 c -7.8942,9.5671 -8.5356,19.088 -2.0813,29.016 l 18.03,-22.025 c 0.52348,-0.63852 1.2532,-0.9964 2.0125,-1.0722 0.75925,-0.0758 1.5438,0.13049 2.1837,0.65399 l 7.2964,5.9729 c 0.63996,0.5235 0.99784,1.2533 1.0736,2.0125 0.07578,0.75928 -0.13052,1.5452 -0.6554,2.1838 l -17.918,21.889 c 10.11,3.7191 20.236,0.94449 27.319,-8.1272 l 12.558,-15.339 c 1.047,-1.2799 0.86031,-3.1493 -0.4182,-4.1976 l -1.4329,-15.454 -16.323,-13.363 -14.892,2.0939 z"
       id="path72"
       inkscape:connector-curvature="0"
       style="stroke:#484848;stroke-width:2.02399993;stroke-linecap:round;stroke-linejoin:round" />
    <path
       d="m 6.246,316.93 c -8.0304,-11.407 7.4634,-26.296 16.315,-36.402 l 17.279,-2.543 c 0.16421,2.8026 -0.19648,2.8546 1.5971,4.9597 -1.4287,-0.0169 -13.404,1.6448 -14.333,2.0181 -10.676,4.2846 -24.146,20.01 -20.858,31.967 z"
       id="path74"
       inkscape:connector-curvature="0"
       style="opacity:0.62999998" />
    <path
       d="m 71.404,272.28 c 1.9592,8.5468 -3.4917,17.088 -12.173,19.077 -8.6802,1.9886 -17.306,-3.3275 -19.263,-11.876 -1.9592,-8.5482 3.4917,-17.089 12.173,-19.078 8.6816,-1.9886 17.306,3.329 19.263,11.877 z"
       id="path76"
       inkscape:connector-curvature="0"
       style="stroke:#484848;stroke-width:2.21700001;stroke-linecap:round;stroke-linejoin:round" />
    <path
       d="m 42.331,277.82 c 3.8734,-7.9125 10.965,-12.179 20.431,-13.756 -11.003,-2.8195 -19.607,-1.402 -20.431,13.756 z"
       id="path78"
       inkscape:connector-curvature="0"
       style="opacity:0.62999998" />
    <path
       d="m 85.041,209.29 c 1.1312,-17.283 12.52,-24.209 26.38,-26.177 -14.029,-5.26 -33.272,7.817 -26.38,26.177 z"
       id="path80"
       inkscape:connector-curvature="0"
       style="opacity:0.62999998" />
  </g>
  <g
     id="g82"
     transform="matrix(0.17745752,0,0,0.17745752,-0.07245777,-0.07169247)"
     style="fill:#a4a4a4;stroke:#484848;stroke-width:2;stroke-linecap:round;stroke-linejoin:round">
    <rect
       transform="matrix(-1.4034,0,0,1.4034,890.51,-241.21)"
       x="474.32999"
       y="424.32999"
       width="36.77"
       height="12.728"
       rx="6.3639998"
       ry="6.3639998"
       id="rect84" />
    <rect
       transform="matrix(-1.4034,0,0,1.4034,890.51,-241.21)"
       x="474.32999"
       y="412.32999"
       width="36.77"
       height="12.728"
       rx="6.3639998"
       ry="6.3639998"
       id="rect86" />
    <rect
       transform="matrix(-1.4034,0,0,1.4034,890.51,-241.21)"
       x="474.32999"
       y="400.32999"
       width="36.77"
       height="12.728"
       rx="6.3639998"
       ry="6.3639998"
       id="rect88" />
    <rect
       transform="matrix(-1.4034,0,0,1.4034,890.51,-241.21)"
       x="473.98001"
       y="387.95999"
       width="36.77"
       height="12.728"
       rx="6.3639998"
       ry="6.3639998"
       id="rect90" />
  </g>
  <path
     d="m 33.527348,53.625178 c -0.575388,0.99878 -1.054026,2.00811 0,3.16992 -0.662058,0.91898 -1.32,1.83864 0.04402,3.08173 -1.274181,1.1907 -0.775064,2.08584 -0.08804,2.9497 -1.131096,1.90696 -0.127549,2.18148 0,3.12574 l -2.641632,0.044 0.220118,-0.66039 -0.528309,-0.79245 0.264163,-1.14467 0.836482,-0.66039 -0.880509,-0.66039 -0.176109,-0.96857 0.924536,-1.23272 -0.616363,-0.57234 -0.220118,-1.10064 1.0566,-1.45285 -0.792455,-0.61636 -0.308172,-0.92454 0.572336,-1.10064 0.572336,-0.48429 1.540916,0.13209 0.220119,-0.13209 z"
     id="path92"
     inkscape:connector-curvature="0"
     style="fill:#808080" />
  <path
     d="m 37.083597,53.655348 c 0.575388,0.99878 1.054045,2.00811 0,3.16992 0.662059,0.919 1.320018,1.83864 -0.04402,3.08173 1.274198,1.1907 0.775081,2.08583 0.08805,2.9497 1.131097,1.90696 0.127542,2.18148 0,3.12573 l 2.641633,0.044 -0.220119,-0.66039 0.528309,-0.79247 -0.264145,-1.14467 -0.8365,-0.66039 0.880527,-0.66039 0.176109,-0.96857 -0.924536,-1.23271 0.616363,-0.57233 0.220118,-1.10065 -1.056617,-1.45284 0.792472,-0.61637 0.308173,-0.92453 -0.572336,-1.10065 -0.572319,-0.48428 -1.540899,0.13208 -0.220136,-0.13208 z"
     id="path94"
     inkscape:connector-curvature="0"
     style="opacity:0.62999998;fill:#ffffff" />
  <g
     id="g96"
     transform="matrix(0.17745752,0,0,0.17745752,-0.07245777,-0.07169247)"
     style="stroke:#484848;stroke-width:2;stroke-linecap:round;stroke-linejoin:round">
    <g
       id="g98"
       style="fill:none">
      <rect
         transform="matrix(-1.4034,0,0,1.4034,890.51,-241.21)"
         x="474.32999"
         y="424.95999"
         width="36.77"
         height="12.103"
         rx="6.0514998"
         ry="6.0514998"
         id="rect100" />
      <rect
         transform="matrix(-1.4034,0,0,1.4034,890.51,-241.21)"
         x="474.32999"
         y="413.07999"
         width="36.77"
         height="11.978"
         rx="5.9889998"
         ry="5.9889998"
         id="rect102" />
      <rect
         transform="matrix(-1.4034,0,0,1.4034,890.51,-241.21)"
         x="474.32999"
         y="400.82999"
         width="36.77"
         height="12.228"
         rx="6.1139998"
         ry="6.1139998"
         id="rect104" />
      <rect
         transform="matrix(-1.4034,0,0,1.4034,890.51,-241.21)"
         x="473.98001"
         y="387.95999"
         width="36.77"
         height="12.728"
         rx="6.3639998"
         ry="6.3639998"
         id="rect106" />
    </g>
    <path
       d="m 172.72,397.61 c 5.4046,0.44183 86.57,1.4211 88.321,-0.49618 0,-19.045 -20.626,-34.485 -46.068,-34.485 -14.467,0 -32.283,2.5109 -40.729,6.8457 -1.4135,2.5948 -1.5231,19.919 -1.5231,28.135 z"
       id="path108"
       inkscape:connector-curvature="0"
       style="fill:#a4a4a4" />
  </g>
  <path
     d="m 46.206688,69.782688 c -7.931109,-0.28005 -15.562669,0.92817 -13.956146,-4.7548 l -1.540917,0.52831 -0.132082,5.01885 15.585029,-0.044 0.04403,-0.74844 z"
     id="path110"
     inkscape:connector-curvature="0"
     style="fill:#808080" />
  <path
     d="m 30.578004,70.487188 c 0.959087,0.0784 15.362498,0.25219 15.673226,-0.0881 0,-3.37968 -3.660239,-6.11962 -8.175113,-6.11962 -2.567278,0 -5.728861,0.44558 -7.227667,1.21482 -0.250837,0.46047 -0.270286,3.53478 -0.270286,4.99277 z"
     id="path112"
     inkscape:connector-curvature="0"
     style="fill:none;stroke:#484848;stroke-width:0.35491505;stroke-linecap:round;stroke-linejoin:round" />
  <path
     d="m 44.728467,68.032958 c -1.763626,-1.4975 -3.545424,-2.66187 -7.841315,-3.0237 3.203108,-0.53974 6.462825,0.34714 7.841315,3.0237 z"
     id="path114"
     inkscape:connector-curvature="0"
     style="opacity:0.62999998;fill:#ffffff" />
  <rect
     x="45.106453"
     y="17.246735"
     width="3.2075448"
     height="7.0441761"
     id="rect116"
     style="fill:#a4a4a4;stroke:#484848;stroke-width:0.49812323;stroke-linecap:round;stroke-linejoin:round" />
  <rect
     x="44.187222"
     y="17.49765"
     width="3.8912883"
     height="1.618803"
     id="rect118"
     style="fill:#0000ff" />
  <rect
     x="44.174801"
     y="22.424591"
     width="3.8912883"
     height="1.618803"
     id="rect120"
     style="opacity:0.35;fill:#ffff00" />
  <g
     id="g122"
     transform="matrix(0.17745752,0,0,0.17745752,-0.07245777,-0.07169247)"
     style="fill:#a4a4a4;stroke:#484848;stroke-width:2.80699992;stroke-linecap:round;stroke-linejoin:round">
    <rect
       x="147.25999"
       y="159.81"
       width="51.200001"
       height="19.288"
       id="rect124" />
    <rect
       x="143.13"
       y="179.17999"
       width="59.828999"
       height="19.145"
       id="rect126" />
    <rect
       x="106.31"
       y="188.22"
       width="129.86"
       height="115.1"
       id="rect128" />
    <rect
       x="69.343002"
       y="97.592003"
       width="18.075001"
       height="39.695"
       id="rect130" />
  </g>
  <rect
     x="12.42978"
     y="17.474243"
     width="3.8912883"
     height="1.618803"
     id="rect132"
     style="fill:#0000ff" />
  <rect
     x="12.492066"
     y="22.454773"
     width="3.8912883"
     height="1.618803"
     id="rect134"
     style="opacity:0.35" />
  <rect
     x="15.198116"
     y="12.853242"
     width="30.045332"
     height="15.453711"
     id="rect136"
     style="fill:#a4a4a4;stroke:#484848;stroke-width:0.49812323;stroke-linecap:round;stroke-linejoin:round" />
  <path
     d="m 40.97524,13.095828 4.025269,0 0,16.41536 -4.025269,0 c 1.162915,-5.47173 1.855141,-10.94363 0,-16.41536 z"
     id="path138"
     inkscape:connector-curvature="0"
     style="opacity:0.328" />
  <g
     id="g140"
     transform="matrix(0.17745752,0,0,0.17745752,-0.07245777,-0.07169247)"
     style="stroke:#484848">
    <path
       d="m 78.599,126.15 23.16,0 21.683,21.542 92.639,0 24.636,-21.542 23.16,0 0,44.409 -185.28,0 0,-44.409 z"
       id="path142"
       inkscape:connector-curvature="0"
       style="fill:#a4a4a4;stroke-width:2.80699992;stroke-linecap:round;stroke-linejoin:round" />
    <g
       id="g144"
       style="fill:#ffffff">
      <path
         d="m 160.39,102.84 c 0,10.903 -8.8383,19.741 -19.741,19.741 -10.9027,0 -19.741,-8.8383 -19.741,-19.741 0,-10.9027 8.8384,-19.741 19.741,-19.741 10.9026,0 19.741,8.8383 19.741,19.741 z"
         id="path146"
         inkscape:connector-curvature="0" />
      <path
         d="m 219.58,101.77 c 0,10.903 -8.8383,19.741 -19.741,19.741 -10.9027,0 -19.741,-8.8383 -19.741,-19.741 0,-10.9027 8.8384,-19.741 19.741,-19.741 10.9026,0 19.741,8.8383 19.741,19.741 z"
         id="path148"
         inkscape:connector-curvature="0" />
    </g>
  </g>
  <path
     d="m 26.079456,19.065328 c 0,1.2184 -0.98771,2.20615 -2.206152,2.20615 -1.218405,0 -2.206151,-0.98773 -2.206151,-2.20615 0,-1.21841 0.98771,-2.20615 2.206151,-2.20615 1.218424,0 2.206152,0.98772 2.206152,2.20615 z"
     id="path150"
     inkscape:connector-curvature="0" />
  <path
     d="m 36.583167,18.939328 c 0,1.21841 -0.987711,2.20615 -2.206152,2.20615 -1.218406,0 -2.206152,-0.98772 -2.206152,-2.20615 0,-1.2184 0.987711,-2.20615 2.206152,-2.20615 1.218423,0 2.206152,0.98773 2.206152,2.20615 z"
     id="path152"
     inkscape:connector-curvature="0" />
  <path
     d="m 15.692158,21.209008 0.251581,-7.61008 13.144811,-0.18868 -12.012809,1.13209 -1.383672,6.66673 z"
     id="path154"
     inkscape:connector-curvature="0"
     style="fill:#e5e5e5" />
  <path
     d="m 42.185501,22.027088 4.325349,-0.0157 0,7.92472 -6.920488,0 c 0.599753,-1.64106 0.9604,-3.38642 -0.03572,-5.72372 l 2.630985,-2.18521 0,-10e-6 z"
     id="path156"
     inkscape:connector-curvature="0"
     style="opacity:0.328" />
  <path
     d="m 14.375778,23.716488 0.02387,6.03231 10.991009,0.01 -9.99636,-0.94638 -1.018499,-5.09587 0,-10e-6 z"
     id="path158"
     inkscape:connector-curvature="0"
     style="fill:#e5e5e5" />
  <path
     d="m 29.151246,5.1963075 1.144672,0 1.584926,7.6604905 -4.402543,0 1.67298,-7.6604905 z"
     id="path160"
     inkscape:connector-curvature="0"
     style="fill:#ff0000;stroke:#484848;stroke-width:0.49812323" />
  <path
     d="m 32.585049,3.1271575 c 0,1.62909 -1.241794,2.9497 -2.773661,2.9497 -1.531831,0 -2.773661,-1.32064 -2.773661,-2.9497 0,-1.6291 1.241794,-2.94969997 2.773661,-2.94969997 1.531831,0 2.773661,1.32063997 2.773661,2.94969997 z"
     id="path162"
     inkscape:connector-curvature="0"
     style="fill:#604aff;stroke:#00054d;stroke-width:0.35491505" />
  <path
     d="m 27.786598,1.9658775 c 1.255334,-0.75769 2.613594,-0.68256 4.047806,0.007 -1.23892,-1.46719997 -2.541015,-2.09594997 -4.047806,-0.007 z"
     id="path164"
     inkscape:connector-curvature="0"
     style="opacity:0.62999998;fill:#ffffff" />
  <path
     d="m 27.373122,3.9478975 c 1.815922,1.23924 3.470714,1.39852 4.871918,-0.14009 -0.35637,2.06596 -3.651366,3.23132 -4.871918,0.14009 z"
     id="path166"
     inkscape:connector-curvature="0"
     style="opacity:0.35" />
  <g
     id="g168"
     transform="matrix(0.17745752,0,0,0.17745752,-0.07245777,-0.07169247)"
     style="stroke-linecap:round;stroke-linejoin:round">
    <g
       id="g170"
       style="stroke:#484848">
      <g
         id="g172"
         style="fill:#484848;stroke-width:1.79499996">
        <rect
           x="142.57001"
           y="272.57001"
           width="57.148998"
           height="6.9762001"
           rx="3.3938999"
           ry="3.3938999"
           id="rect174" />
        <rect
           x="143.27"
           y="285.89999"
           width="57.148998"
           height="6.9762001"
           rx="3.3938999"
           ry="3.3938999"
           id="rect176" />
      </g>
      <g
         id="g178"
         style="fill:#ff0000;stroke-width:2">
        <path
           d="m 133.09,282.98 c 0,4.9911 -4.0461,9.0373 -9.0373,9.0373 -4.9911,0 -9.0373,-4.0462 -9.0373,-9.0373 0,-4.9912 4.0462,-9.0373 9.0373,-9.0373 4.9911,0 9.0373,4.0461 9.0373,9.0373 z"
           id="path180"
           inkscape:connector-curvature="0" />
        <path
           d="m 228.52,282.98 c 0,4.9911 -4.0461,9.0373 -9.0373,9.0373 -4.9911,0 -9.0373,-4.0462 -9.0373,-9.0373 0,-4.9912 4.0461,-9.0373 9.0373,-9.0373 4.9911,0 9.0373,4.0461 9.0373,9.0373 z"
           id="path182"
           inkscape:connector-curvature="0" />
      </g>
      <rect
         x="113.61"
         y="196.59"
         width="114.73"
         height="70.170998"
         rx="3.3938999"
         ry="3.3938999"
         id="rect184"
         style="fill:#dbfffc;stroke-width:2.80699992" />
    </g>
    <path
       d="m 114.31,237.29 13.332,0 9.8239,-30.174 5.9645,30.524 7.368,-13.332 11.227,29.823 6.6662,-19.297 15.438,-0.3509 6.3154,-23.156 6.3154,37.542 6.3154,-24.56 3.5085,12.631 20.35,0"
       id="path186"
       inkscape:connector-curvature="0"
       style="fill:none;stroke:#00a799;stroke-width:2.80699992" />
  </g>
  <path
     d="m 20.691846,46.691908 0.0046,-10.27372 c -0.02261,-0.67888 0.519507,-1.02908 1.057167,-1.05195 l 17.469273,-0.0441 -16.782689,1.01589 c -0.597376,0.0755 -0.848407,0.39843 -0.865177,0.88867 l -0.914279,7.69083 1.8e-5,2e-5 0.03113,1.77447 z"
     id="path188"
     inkscape:connector-curvature="0"
     style="opacity:0.95;fill:#ffffff" />
  <rect
     x="20.088491"
     y="34.814667"
     width="20.359701"
     height="12.452372"
     rx="0.60227305"
     ry="0.60227305"
     id="rect190"
     style="fill:none;stroke:#484848;stroke-width:0.49812323;stroke-linecap:round;stroke-linejoin:round" />
  <g
     id="g192"
     transform="matrix(0.17745752,0,0,0.17745752,-0.07245777,-0.07169247)"
     style="fill:#ffffff">
    <path
       d="m 117.18,280.56 c 4.2657,-2.3168 8.881,-2.087 13.754,0.0213 -4.2099,-4.4863 -8.6343,-6.4088 -13.754,-0.0213 z"
       id="path194"
       inkscape:connector-curvature="0"
       style="opacity:0.62999998" />
    <path
       d="m 212.69,280.49 c 4.2657,-2.3168 8.881,-2.087 13.754,0.0213 -4.2099,-4.4863 -8.6343,-6.4088 -13.754,-0.0213 z"
       id="path196"
       inkscape:connector-curvature="0"
       style="opacity:0.62999998" />
  </g>
  <g
     id="g198"
     transform="matrix(0.17745752,0,0,0.17745752,-0.07245777,-0.07169247)"
     style="fill:#a4a4a4;stroke:#484848;stroke-width:2;stroke-linecap:round;stroke-linejoin:round">
    <rect
       transform="matrix(1.4034,0,0,1.4034,-142.7,-240.72)"
       x="189.02"
       y="424.32999"
       width="36.77"
       height="12.728"
       rx="6.3639998"
       ry="6.3639998"
       id="rect200" />
    <rect
       transform="matrix(1.4034,0,0,1.4034,-142.7,-240.72)"
       x="189.02"
       y="412.32999"
       width="36.77"
       height="12.728"
       rx="6.3639998"
       ry="6.3639998"
       id="rect202" />
    <rect
       transform="matrix(1.4034,0,0,1.4034,-142.7,-240.72)"
       x="189.02"
       y="400.32999"
       width="36.77"
       height="12.728"
       rx="6.3639998"
       ry="6.3639998"
       id="rect204" />
    <rect
       transform="matrix(1.4034,0,0,1.4034,-142.7,-240.72)"
       x="188.67"
       y="387.95999"
       width="36.77"
       height="12.728"
       rx="6.3639998"
       ry="6.3639998"
       id="rect206" />
  </g>
  <path
     d="m 27.974703,53.712128 c 0.575388,0.99879 1.054026,2.00811 0,3.16993 0.662058,0.91898 1.32,1.83863 -0.04402,3.08172 1.27418,1.19071 0.775081,2.08584 0.08805,2.9497 1.131096,1.90696 0.127542,2.18149 0,3.12574 l 2.641632,0.044 -0.220136,-0.66039 0.528309,-0.79246 -0.264146,-1.14467 -0.836499,-0.66039 0.880509,-0.66039 0.176109,-0.96856 -0.924536,-1.23273 0.616363,-0.57234 0.220118,-1.10064 -1.056617,-1.45285 0.792472,-0.61636 0.308173,-0.92453 -0.572336,-1.10065 -0.572336,-0.48428 -1.5409,0.13208 -0.220136,-0.13208 z"
     id="path208"
     inkscape:connector-curvature="0"
     style="fill:#808080" />
  <path
     d="m 24.418454,53.744078 c -0.575388,0.99878 -1.054044,2.0081 0,3.16992 -0.662059,0.919 -1.32,1.83864 0.04402,3.08173 -1.27418,1.19072 -0.775081,2.08583 -0.08805,2.9497 -1.131097,1.90695 -0.127542,2.18148 0,3.12573 l -2.641633,0.044 0.220136,-0.66039 -0.528308,-0.79247 0.264145,-1.14468 0.836499,-0.66039 -0.880508,-0.66039 -0.176109,-0.96856 0.924536,-1.23273 -0.616363,-0.57233 -0.220137,-1.10065 1.056618,-1.45284 -0.792472,-0.61636 -0.308173,-0.92454 0.572336,-1.10064 0.572336,-0.48429 1.540899,0.13209 0.220136,-0.13209 z"
     id="path210"
     inkscape:connector-curvature="0"
     style="opacity:0.62999998;fill:#ffffff" />
  <g
     id="g212"
     transform="matrix(0.17745752,0,0,0.17745752,-0.07245777,-0.07169247)"
     style="stroke:#484848;stroke-width:2;stroke-linecap:round;stroke-linejoin:round">
    <g
       id="g214"
       style="fill:none">
      <rect
         transform="matrix(1.4034,0,0,1.4034,-142.7,-240.72)"
         x="189.02"
         y="424.95999"
         width="36.77"
         height="12.103"
         rx="6.0514998"
         ry="6.0514998"
         id="rect216" />
      <rect
         transform="matrix(1.4034,0,0,1.4034,-142.7,-240.72)"
         x="189.02"
         y="413.07999"
         width="36.77"
         height="11.978"
         rx="5.9889998"
         ry="5.9889998"
         id="rect218" />
      <rect
         transform="matrix(1.4034,0,0,1.4034,-142.7,-240.72)"
         x="189.02"
         y="400.82999"
         width="36.77"
         height="12.228"
         rx="6.1139998"
         ry="6.1139998"
         id="rect220" />
      <rect
         transform="matrix(1.4034,0,0,1.4034,-142.7,-240.72)"
         x="188.67"
         y="387.95999"
         width="36.77"
         height="12.728"
         rx="6.3639998"
         ry="6.3639998"
         id="rect222" />
    </g>
    <path
       d="m 174.67,398.1 c -5.4046,0.44183 -86.57,1.4211 -88.321,-0.49618 0,-19.045 20.626,-34.485 46.069,-34.485 14.467,0 32.283,2.5108 40.729,6.8457 1.4135,2.5948 1.523,19.919 1.523,28.135 z"
       id="path224"
       inkscape:connector-curvature="0"
       style="fill:#a4a4a4" />
  </g>
  <path
     d="m 15.295363,69.869638 c 7.931109,-0.28005 15.562669,0.92817 13.956146,-4.7548 l 1.5409,0.52831 0.132081,5.01886 -15.585029,-0.044 -0.04403,-0.74843 z"
     id="path226"
     inkscape:connector-curvature="0"
     style="fill:#808080" />
  <path
     d="m 30.924047,70.574148 c -0.959087,0.0784 -15.362498,0.25218 -15.673226,-0.088 0,-3.37968 3.660239,-6.11963 8.175291,-6.11963 2.567277,0 5.728861,0.44556 7.227667,1.21482 0.250836,0.46047 0.270268,3.53478 0.270268,4.99277 z"
     id="path228"
     inkscape:connector-curvature="0"
     style="fill:none;stroke:#484848;stroke-width:0.35491505;stroke-linecap:round;stroke-linejoin:round" />
  <path
     d="m 16.773939,68.121678 c 1.763626,-1.49749 3.545424,-2.66186 7.841315,-3.02369 -3.203108,-0.53974 -6.462825,0.34714 -7.841315,3.02369 z"
     id="path230"
     inkscape:connector-curvature="0"
     style="opacity:0.62999998;fill:#ffffff" />
</svg>
