<?xml version="1.0" encoding="UTF-8" standalone="no"?>
<svg
   xmlns:dc="http://purl.org/dc/elements/1.1/"
   xmlns:cc="http://creativecommons.org/ns#"
   xmlns:rdf="http://www.w3.org/1999/02/22-rdf-syntax-ns#"
   xmlns:svg="http://www.w3.org/2000/svg"
   xmlns="http://www.w3.org/2000/svg"
   xmlns:sodipodi="http://sodipodi.sourceforge.net/DTD/sodipodi-0.dtd"
   xmlns:inkscape="http://www.inkscape.org/namespaces/inkscape"
   viewBox="0 0 60.095169 70.86615"
   id="svg2"
   version="1.1"
   inkscape:version="0.91 r13725"
   sodipodi:docname="robot2.svg"
   width="60.095169"
   height="70.86615">
  <metadata
     id="metadata236">
    <rdf:RDF>
      <cc:Work
         rdf:about="">
        <dc:format>image/svg+xml</dc:format>
        <dc:type
           rdf:resource="http://purl.org/dc/dcmitype/StillImage" />
        <dc:title></dc:title>
      </cc:Work>
    </rdf:RDF>
  </metadata>
  <defs
     id="defs234" />
  <sodipodi:namedview
     pagecolor="#ffffff"
     bordercolor="#666666"
     borderopacity="1"
     objecttolerance="10"
     gridtolerance="10"
     guidetolerance="10"
     inkscape:pageopacity="0"
     inkscape:pageshadow="2"
     inkscape:window-width="1366"
     inkscape:window-height="710"
     id="namedview232"
     showgrid="false"
     fit-margin-top="0"
     fit-margin-left="0"
     fit-margin-right="0"
     fit-margin-bottom="0"
     inkscape:zoom="7.8666667"
     inkscape:cx="-7.6251731"
     inkscape:cy="36.694121"
     inkscape:window-x="0"
     inkscape:window-y="0"
     inkscape:window-maximized="1"
     inkscape:current-layer="svg2" />
  <path
     style="fill:#ffffff;stroke:#000000;stroke-width:0.2;stroke-linecap:round;stroke-linejoin:round;stroke-miterlimit:4;stroke-dasharray:none"
     d="m 55.794719,49.201163 c 2.387171,0.286712 5.763383,5.519233 2.540281,6.439195 -1.044035,-3.430413 -6.493204,-1.00175 -2.676684,1.323153 1.119834,4.487833 -5.711277,0.357267 -5.429837,-2.347165 -0.991843,-3.309147 2.157847,-6.873702 5.56624,-5.415183 z"
     id="path30"
     inkscape:connector-curvature="0" />
  <path
     style="fill:#ffffff;stroke:#000000;stroke-width:0.2;stroke-linecap:round;stroke-linejoin:round;stroke-miterlimit:4;stroke-dasharray:none"
     d="M 4.3004504,49.201163 C 1.9132793,49.487875 -1.4629321,54.720394 1.760168,55.640358 2.804205,52.209945 8.2533706,54.63861 4.4368473,56.963509 3.3155003,61.44967 10.141219,57.323338 9.8665542,54.622732 10.82082,51.264654 7.7690576,47.773899 4.3004504,49.201163 Z"
     id="path68"
     inkscape:connector-curvature="0" />
  <path
     inkscape:connector-curvature="0"
     id="rect90"
     d="M 35.81168,51.585567 C 32.027939,50.99144 31.232476,65.252108 36.995912,66.678091 38.918854,67.410142 43.079444,51.963509 35.81168,51.585567 Z"
     style="fill:#ffffff;stroke:#000000;stroke-width:0.19999999;stroke-linecap:round;stroke-linejoin:round;stroke-miterlimit:4;stroke-dasharray:none"
     sodipodi:nodetypes="ccc" />
  <path
     inkscape:connector-curvature="0"
     id="path108"
     d="m 33.415051,70.496118 c 4.280924,0.06684 8.570433,0.316388 12.845535,-0.0883 -0.36268,-4.506244 -4.618702,-6.86034 -7.942996,-6.070575 -2.759065,-1.106474 -6.410915,2.622181 -4.902539,6.158879 z"
     style="fill:#ffffff;stroke:#000000;stroke-width:0.1813222;stroke-linecap:round;stroke-linejoin:round;stroke-miterlimit:4;stroke-dasharray:none" />
  <path
     inkscape:connector-curvature="0"
     id="rect206"
     d="m 25.333655,52.21184 c 4.891688,-0.61732 4.533075,16.589706 -1.471538,14.781507 -3.014239,1.69747 -3.455705,-15.542944 1.471538,-14.781507 z"
     style="fill:#ffffff;stroke:#000000;stroke-width:0.19999999;stroke-linecap:round;stroke-linejoin:round;stroke-miterlimit:4;stroke-dasharray:none"
     sodipodi:nodetypes="ccc" />
  <path
     inkscape:connector-curvature="0"
     id="path224"
     d="m 28.7038,70.581051 c -4.485774,0.0668 -8.980544,0.316184 -13.460217,-0.08825 0.380065,-4.503387 4.839833,-6.855883 8.323234,-6.066639 2.89444,-1.095087 6.719293,2.611024 5.136983,6.154886 z"
     style="fill:#ffffff;stroke:#000000;stroke-width:0.18554957;stroke-linecap:round;stroke-linejoin:round;stroke-miterlimit:4;stroke-dasharray:none" />
  <path
     style="fill:#ffffff;stroke:#000000;stroke-width:0.2;stroke-linecap:round;stroke-linejoin:round;stroke-miterlimit:4;stroke-dasharray:none"
     d="m 37.536114,35.819091 c -0.466917,4.376861 14.499253,20.410767 15.532268,16.144967 1.824527,-4.022813 -12.171721,-21.77246 -14.44219,-17.875556 -0.53841,0.709961 -1.114608,0.834328 -1.090078,1.730589 z"
     id="path28"
     inkscape:connector-curvature="0"
     sodipodi:nodetypes="cccc" />
  <path
     style="fill:#ffffff;stroke:#000000;stroke-width:0.2;stroke-linecap:round;stroke-linejoin:round;stroke-miterlimit:4;stroke-dasharray:none"
     d="M 22.5587,35.819091 C 23.025619,40.195953 7.1605811,55.870314 6.1275671,51.604512 4.3030471,47.581704 19.833724,30.064486 22.10421,33.961367 c 0.5384,0.709972 0.479025,0.961455 0.45449,1.857724 z"
     id="path66"
     inkscape:connector-curvature="0"
     sodipodi:nodetypes="cccc" />
  <path
     inkscape:connector-curvature="0"
     id="rect124"
     d="m 26.028022,29.694065 c 3.019922,0 6.039845,0 9.059767,0 0,1.46183 0,2.923661 0,4.385491 -3.019922,0 -6.039845,0 -9.059767,0 0,-1.46183 0,-2.923661 0,-4.385491 z"
     style="fill:#ffffff;stroke:#000000;stroke-width:0.22606044;stroke-linecap:round;stroke-linejoin:round;stroke-miterlimit:4;stroke-dasharray:none" />
  <path
     inkscape:connector-curvature="0"
     id="rect128"
     d="m 18.793051,33.329362 c 7.681545,0 15.363089,0 23.044634,0 0,6.808454 0,13.616906 0,20.42536 -7.681545,0 -15.363089,0 -23.044634,0 0,-6.808454 0,-13.616906 0,-20.42536 z"
     style="fill:#ffffff;stroke:#000000;stroke-width:0.19999999;stroke-linecap:round;stroke-linejoin:round;stroke-miterlimit:4;stroke-dasharray:none" />
  <path
     style="fill:#ffffff;stroke:#000000;stroke-width:0.2;stroke-linecap:round;stroke-linejoin:round;stroke-miterlimit:4;stroke-dasharray:none"
     d="m 45.106453,17.246735 c 3.506813,-1.025189 4.618777,4.68791 2.558248,6.661212 -3.561152,1.071568 -2.60744,-4.148544 -2.534399,-6.245141 l -0.02385,-0.416071 z"
     id="rect116"
     inkscape:connector-curvature="0" />
  <path
     inkscape:connector-curvature="0"
     id="rect130"
     d="m 12.232979,17.246742 c 3.506797,-1.025186 4.618751,4.687822 2.558265,6.661139 -3.563117,1.072568 -2.606004,-4.149853 -2.534632,-6.246635 l -0.02363,-0.414504 z"
     style="fill:#ffffff;stroke:#000000;stroke-width:0.19999999;stroke-linecap:round;stroke-linejoin:round;stroke-miterlimit:4;stroke-dasharray:none" />
  <path
     style="fill:#ffffff;stroke:#000000;stroke-width:0.2;stroke-linecap:round;stroke-linejoin:round;stroke-miterlimit:4;stroke-dasharray:none"
     d="m 15.198116,12.853242 c 10.015111,0 20.030221,0 30.045332,0 0,5.151237 0,10.302473 0,15.45371 -10.015111,0 -20.030221,0 -30.045332,0 0,-5.151237 0,-10.302473 0,-15.45371 z"
     id="rect136"
     inkscape:connector-curvature="0" />
  <path
     style="fill:#ffffff;stroke:#000000;stroke-width:0.2;stroke-linecap:round;stroke-linejoin:round;stroke-miterlimit:4;stroke-dasharray:none"
     d="m 13.875526,22.314574 c 3.491396,-1.394756 5.778274,2.448143 8.676645,3.569748 2.640163,0.589491 5.425192,0.08731 8.127644,0.254548 2.561778,-0.08344 5.246509,0.157859 7.732039,-0.123166 1.488783,-1.19038 2.852215,-2.714542 4.417525,-3.701148 1.308373,0 2.616747,0 3.925121,0 0,2.626904 0,5.253807 0,7.880711 -10.959776,0 -21.919553,0 -32.879329,0 2.31e-4,-2.626887 -4.79e-4,-5.253863 3.55e-4,-7.880693 z"
     id="path142"
     inkscape:connector-curvature="0" />
  <g
     id="g5052">
    <path
       inkscape:connector-curvature="0"
       id="path160"
       d="m 29.151246,5.1963075 c 2.927547,1.3761068 3.790993,9.5827765 -0.842963,7.3519255 -1.597219,-2.16216 0.730388,-4.9637335 0.842963,-7.3519255 z"
       style="fill:#ffffff;stroke:#000000;stroke-width:0.2;stroke-miterlimit:4;stroke-dasharray:none" />
    <path
       inkscape:connector-curvature="0"
       id="path162"
       d="m 32.585049,3.1271575 c 0.15412,5.711403 -9.466743,-0.1445974 -4.156008,-2.63336495 1.750873,-0.92865161 4.432536,0.53816695 4.156008,2.63336495 z"
       style="fill:#ffffff;stroke:#000000;stroke-width:0.2;stroke-miterlimit:4;stroke-dasharray:none" />
  </g>
</svg>
