<?xml version="1.0" encoding="UTF-8" standalone="no"?>
<svg
   xmlns:dc="http://purl.org/dc/elements/1.1/"
   xmlns:cc="http://creativecommons.org/ns#"
   xmlns:rdf="http://www.w3.org/1999/02/22-rdf-syntax-ns#"
   xmlns:svg="http://www.w3.org/2000/svg"
   xmlns="http://www.w3.org/2000/svg"
   version="1.1"
   id="svg2"
   viewBox="0 0 744.09448819 1052.3622047"
   height="297mm"
   width="210mm">
  <defs
     id="defs4" />
  <metadata
     id="metadata7">
    <rdf:RDF>
      <cc:Work
         rdf:about="">
        <dc:format>image/svg+xml</dc:format>
        <dc:type
           rdf:resource="http://purl.org/dc/dcmitype/StillImage" />
        <dc:title></dc:title>
      </cc:Work>
    </rdf:RDF>
  </metadata>
  <g
     id="layer1">
    <g
       id="text3336"
       style="font-style:normal;font-weight:normal;font-size:36.49789047px;line-height:125%;font-family:sans-serif;letter-spacing:0px;word-spacing:0px;fill:#000000;fill-opacity:1;stroke:none;stroke-width:1px;stroke-linecap:butt;stroke-linejoin:miter;stroke-opacity:1">
      <path
         id="path3341"
         d="m -72.592076,-16.784597 15.290621,0 0,3.029611 -11.690731,0 0,7.8413435 10.550172,0 0,3.02961 -10.550172,0 0,12.706541 -3.59989,0 0,-26.6071055 z" />
      <path
         id="path3343"
         d="m -42.777148,-7.0720235 q -0.552458,-0.320782 -1.211844,-0.463352 -0.641564,-0.160391 -1.425698,-0.160391 -2.780113,0 -4.277097,1.817766 -1.479163,1.799945 -1.479163,5.18598003 l 0,10.51452897 -3.296928,0 0,-19.9597835 3.296928,0 0,3.1008945 q 1.033632,-1.817766 2.691007,-2.691007 1.657375,-0.8910615 4.027599,-0.8910615 0.338604,0 0.748492,0.05346 0.409889,0.03564 0.908883,0.124749 l 0.01782,3.3682125 z" />
      <path
         id="path3345"
         d="m -23.013395,-0.97716047 0,1.603911 -15.076766,0 q 0.213855,3.38603497 2.031621,5.16815797 1.835587,1.764303 5.096874,1.764303 1.889051,0 3.653353,-0.463352 1.782123,-0.463353 3.528604,-1.390057 l 0,3.100895 q -1.764302,0.748492 -3.61771,1.140559 -1.853409,0.3920675 -3.760281,0.3920675 -4.776091,0 -7.574025,-2.7801125 -2.780113,-2.780113 -2.780113,-7.52056197 0,-4.90084003 2.637543,-7.77005803 2.655364,-2.8870405 7.146315,-2.8870405 4.0276,0 6.362182,2.6019005 2.352403,2.584079 2.352403,7.03938803 z m -3.279108,-0.96234703 q -0.03564,-2.691006 -1.514805,-4.294918 -1.461341,-1.603911 -3.885029,-1.603911 -2.74447,0 -4.401845,1.550448 -1.639554,1.550447 -1.889051,4.366202 l 11.69073,-0.01782 z" />
      <path
         id="path3347"
         d="m -0.55863841,-0.97716047 0,1.603911 -15.07676459,0 q 0.213855,3.38603497 2.031621,5.16815797 1.835587,1.764303 5.0968726,1.764303 1.889051,0 3.653354,-0.463352 1.782123,-0.463353 3.528604,-1.390057 l 0,3.100895 q -1.764302,0.748492 -3.617711,1.140559 -1.853408,0.3920675 -3.76028,0.3920675 -4.7760906,0 -7.5740246,-2.7801125 -2.780113,-2.780113 -2.780113,-7.52056197 0,-4.90084003 2.637543,-7.77005803 2.655364,-2.8870405 7.1463146,-2.8870405 4.027599,0 6.362181,2.6019005 2.35240299,2.584079 2.35240299,7.03938803 z M -3.8377454,-1.9395075 q -0.03564,-2.691006 -1.514805,-4.294918 -1.461341,-1.603911 -3.885029,-1.603911 -2.7444706,0 -4.4018456,1.550448 -1.639553,1.550447 -1.889051,4.366202 l 11.6907306,-0.01782 z" />
      <path
         id="path3349"
         d="m 24.890086,-14.735155 0,3.795924 q -1.817764,-1.693017 -3.885028,-2.530615 -2.049442,-0.837599 -4.366202,-0.837599 -4.562237,0 -6.9859254,2.797935 -2.423688,2.7801115 -2.423688,8.0551975 0,5.257265 2.423688,8.055199 2.4236884,2.780112 6.9859254,2.780112 2.31676,0 4.366202,-0.837598 2.067264,-0.837598 3.885028,-2.530615 l 0,3.76028 q -1.889049,1.283129 -4.009776,1.924694 -2.102906,0.6415645 -4.455309,0.6415645 -6.041399,0 -9.5165404,-3.6889955 -3.475141,-3.706817 -3.475141,-10.104641 0,-6.415645 3.475141,-10.1046405 3.4751414,-3.706817 9.5165404,-3.706817 2.388045,0 4.490951,0.641565 2.120727,0.623743 3.974134,1.88905 z" />
      <path
         id="path3351"
         d="m 39.414396,-0.21084747 q -3.97413,0 -5.50676,0.908883 -1.53263,0.90888297 -1.53263,3.10089497 0,1.746481 1.14056,2.780113 1.15838,1.01581 3.13654,1.01581 2.72665,0 4.3662,-1.924693 1.65738,-1.942515 1.65738,-5.15033697 l 0,-0.730671 -3.26129,0 z m 6.54039,-1.35441403 0,11.38777 -3.2791,0 0,-3.02961 q -1.12274,1.817766 -2.79794,2.691006 -1.67519,0.8554195 -4.09888,0.8554195 -3.06525,0 -4.88302,-1.7108385 -1.79994,-1.72866 -1.79994,-4.6157 0,-3.36821397 2.24547,-5.079052 2.2633,-1.710839 6.73643,-1.710839 l 4.59788,0 0,-0.320782 q 0,-2.263297 -1.49699,-3.492962 -1.47916,-1.247487 -4.17017,-1.247487 -1.71083,0 -3.33257,0.409889 -1.62173,0.409888 -3.11871,1.229665 l 0,-3.02961 q 1.79994,-0.695028 3.49296,-1.0336315 1.69302,-0.356425 3.29693,-0.356425 4.33056,0 6.46911,2.2454755 2.13854,2.245476 2.13854,6.807712 z" />
      <path
         id="path3353"
         d="m 65.861106,-7.1076655 0,-10.7996685 3.27911,0 0,27.7298425 -3.27911,0 0,-2.993968 q -1.03363,1.782124 -2.61972,2.655364 -1.56827,0.8554195 -3.7781,0.8554195 -3.61771,0 -5.89883,-2.8870405 -2.2633,-2.88704 -2.2633,-7.59184597 0,-4.70480603 2.2633,-7.59184603 2.28112,-2.8870405 5.89883,-2.8870405 2.20983,0 3.7781,0.8732405 1.58609,0.855419 2.61972,2.637543 z m -11.17391,6.96810303 q 0,3.61771097 1.47916,5.68497397 1.49698,2.049442 4.09888,2.049442 2.6019,0 4.09889,-2.049442 1.49698,-2.067263 1.49698,-5.68497397 0,-3.61771103 -1.49698,-5.66715303 -1.49699,-2.067263 -4.09889,-2.067263 -2.6019,0 -4.09888,2.067263 -1.47916,2.049442 -1.47916,5.66715303 z" />
    </g>
  </g>
</svg>
